<svg viewBox="0 0 14 14" fill="none" xmlns="http://www.w3.org/2000/svg">
<mask id="mask0_917_1059" style="mask-type:alpha" maskUnits="userSpaceOnUse" x="0" y="0" width="14" height="14">
<rect width="14" height="14" fill="#D9D9D9"/>
</mask>
<g mask="url(#mask0_917_1059)">
<path d="M6.4165 7.58317H3.49984C3.33456 7.58317 3.19602 7.52727 3.08421 7.41546C2.97241 7.30366 2.9165 7.16512 2.9165 6.99984C2.9165 6.83456 2.97241 6.69602 3.08421 6.58421C3.19602 6.47241 3.33456 6.4165 3.49984 6.4165H6.4165V3.49984C6.4165 3.33456 6.47241 3.19602 6.58421 3.08421C6.69602 2.97241 6.83456 2.9165 6.99984 2.9165C7.16512 2.9165 7.30366 2.97241 7.41546 3.08421C7.52727 3.19602 7.58317 3.33456 7.58317 3.49984V6.4165H10.4998C10.6651 6.4165 10.8037 6.47241 10.9155 6.58421C11.0273 6.69602 11.0832 6.83456 11.0832 6.99984C11.0832 7.16512 11.0273 7.30366 10.9155 7.41546C10.8037 7.52727 10.6651 7.58317 10.4998 7.58317H7.58317V10.4998C7.58317 10.6651 7.52727 10.8037 7.41546 10.9155C7.30366 11.0273 7.16512 11.0832 6.99984 11.0832C6.83456 11.0832 6.69602 11.0273 6.58421 10.9155C6.47241 10.8037 6.4165 10.6651 6.4165 10.4998V7.58317Z" fill="currentColor"/>
</g>
</svg>
