<svg viewBox="0 0 16 16" fill="none" xmlns="http://www.w3.org/2000/svg">
<mask id="mask0_141_3678" style="mask-type:alpha" maskUnits="userSpaceOnUse" x="0" y="0" width="16" height="16">
<rect width="16" height="16" fill="#1773DF"/>
</mask>
<g mask="url(#mask0_141_3678)">
<path d="M2.85 14.6668C2.62778 14.6668 2.45 14.5807 2.31667 14.4085C2.18333 14.2363 2.14444 14.0446 2.2 13.8335L4.7 3.8335L4.66667 3.36683C4.65556 3.17794 4.58889 3.01405 4.46667 2.87516C4.34444 2.73627 4.18889 2.66683 4 2.66683C3.81111 2.66683 3.65278 2.73072 3.525 2.8585C3.39722 2.98627 3.33333 3.14461 3.33333 3.3335V4.00016C3.33333 4.18905 3.26944 4.34738 3.14167 4.47516C3.01389 4.60294 2.85556 4.66683 2.66667 4.66683C2.47778 4.66683 2.31944 4.60294 2.19167 4.47516C2.06389 4.34738 2 4.18905 2 4.00016V3.3335C2 2.77794 2.19444 2.30572 2.58333 1.91683C2.97222 1.52794 3.44444 1.3335 4 1.3335H11.3667C11.9 1.3335 12.3583 1.51405 12.7417 1.87516C13.125 2.23627 13.3333 2.6835 13.3667 3.21683L13.9667 13.9668C13.9778 14.1557 13.9167 14.3196 13.7833 14.4585C13.65 14.5974 13.4889 14.6668 13.3 14.6668H2.85ZM3.73333 13.3335H5.28333L4.96667 8.26683L3.73333 13.3335ZM6.63333 13.3335H12.6L12.0333 3.30016C12.0222 3.12238 11.9528 2.97238 11.825 2.85016C11.6972 2.72794 11.5444 2.66683 11.3667 2.66683H5.88333C5.92778 2.77794 5.95556 2.88627 5.96667 2.99183C5.97778 3.09738 5.98889 3.21127 6 3.3335L6.63333 13.3335ZM9.16667 12.0002C9.31111 12.0002 9.43056 11.9529 9.525 11.8585C9.61944 11.7641 9.66667 11.6446 9.66667 11.5002V9.3335C9.95555 9.26683 10.1944 9.11405 10.3833 8.87516C10.5722 8.63627 10.6667 8.36127 10.6667 8.05016V5.66683C10.6667 5.57794 10.6333 5.50016 10.5667 5.4335C10.5 5.36683 10.4222 5.3335 10.3333 5.3335C10.2444 5.3335 10.1667 5.36683 10.1 5.4335C10.0333 5.50016 10 5.57794 10 5.66683V7.85016H9.5V5.66683C9.5 5.57794 9.46667 5.50016 9.4 5.4335C9.33333 5.36683 9.25556 5.3335 9.16667 5.3335C9.07778 5.3335 9 5.36683 8.93333 5.4335C8.86667 5.50016 8.83333 5.57794 8.83333 5.66683V7.85016H8.33333V5.66683C8.33333 5.57794 8.3 5.50016 8.23333 5.4335C8.16667 5.36683 8.08889 5.3335 8 5.3335C7.91111 5.3335 7.83333 5.36683 7.76667 5.4335C7.7 5.50016 7.66667 5.57794 7.66667 5.66683V8.05016C7.66667 8.36127 7.76111 8.63627 7.95 8.87516C8.13889 9.11405 8.37778 9.26683 8.66667 9.3335V11.5002C8.66667 11.6446 8.71389 11.7641 8.80833 11.8585C8.90278 11.9529 9.02222 12.0002 9.16667 12.0002Z" fill="currentColor"/>
</g>
</svg>
