<svg viewBox="0 0 20 20" fill="none" xmlns="http://www.w3.org/2000/svg">
<mask id="mask0_991_3436" style="mask-type:alpha" maskUnits="userSpaceOnUse" x="0" y="0" width="20" height="20">
<mask id="mask1_991_3436" style="mask-type:alpha" maskUnits="userSpaceOnUse" x="0" y="0" width="24" height="24">
<rect width="24" height="24" fill="#D4D4D3"/>
</mask>
<g mask="url(#mask1_991_3436)">
<path d="M9.99996 14.1667C10.2361 14.1667 10.434 14.0869 10.5937 13.9272C10.7534 13.7674 10.8333 13.5695 10.8333 13.3334C10.8333 13.0973 10.7534 12.8994 10.5937 12.7397C10.434 12.5799 10.2361 12.5001 9.99996 12.5001C9.76385 12.5001 9.56593 12.5799 9.40621 12.7397C9.24649 12.8994 9.16663 13.0973 9.16663 13.3334C9.16663 13.5695 9.24649 13.7674 9.40621 13.9272C9.56593 14.0869 9.76385 14.1667 9.99996 14.1667ZM9.99996 10.8334C10.2361 10.8334 10.434 10.7536 10.5937 10.5938C10.7534 10.4341 10.8333 10.2362 10.8333 10.0001V6.66675C10.8333 6.43064 10.7534 6.23272 10.5937 6.073C10.434 5.91328 10.2361 5.83341 9.99996 5.83341C9.76385 5.83341 9.56593 5.91328 9.40621 6.073C9.24649 6.23272 9.16663 6.43064 9.16663 6.66675V10.0001C9.16663 10.2362 9.24649 10.4341 9.40621 10.5938C9.56593 10.7536 9.76385 10.8334 9.99996 10.8334ZM9.99996 18.3334C8.84718 18.3334 7.76385 18.1147 6.74996 17.6772C5.73607 17.2397 4.85413 16.6459 4.10413 15.8959C3.35413 15.1459 2.76038 14.264 2.32288 13.2501C1.88538 12.2362 1.66663 11.1529 1.66663 10.0001C1.66663 8.8473 1.88538 7.76397 2.32288 6.75008C2.76038 5.73619 3.35413 4.85425 4.10413 4.10425C4.85413 3.35425 5.73607 2.7605 6.74996 2.323C7.76385 1.8855 8.84718 1.66675 9.99996 1.66675C11.1527 1.66675 12.2361 1.8855 13.25 2.323C14.2638 2.7605 15.1458 3.35425 15.8958 4.10425C16.6458 4.85425 17.2395 5.73619 17.677 6.75008C18.1145 7.76397 18.3333 8.8473 18.3333 10.0001C18.3333 11.1529 18.1145 12.2362 17.677 13.2501C17.2395 14.264 16.6458 15.1459 15.8958 15.8959C15.1458 16.6459 14.2638 17.2397 13.25 17.6772C12.2361 18.1147 11.1527 18.3334 9.99996 18.3334Z" fill="#1C1B1F"/>
</g>
</mask>
<g mask="url(#mask0_991_3436)">
<rect width="20" height="20" fill="currentColor"/>
</g>
</svg>
