<svg width="20" height="20" viewBox="0 0 20 20" fill="none" xmlns="http://www.w3.org/2000/svg">
<mask id="mask0_576_102" style="mask-type:alpha" maskUnits="userSpaceOnUse" x="0" y="0" width="20" height="20">
<rect width="20" height="20" transform="matrix(1 0 0 -1 0 20)" fill="#D9D9D9"/>
</mask>
<g mask="url(#mask0_576_102)">
<path d="M10.0001 7.54158C9.88894 7.54158 9.78477 7.55894 9.68755 7.59366C9.59033 7.62838 9.50005 7.68741 9.41672 7.77074L5.58338 11.6041C5.43061 11.7569 5.35074 11.9478 5.3438 12.177C5.33686 12.4062 5.41672 12.6041 5.58338 12.7707C5.73616 12.9235 5.93061 12.9999 6.16672 12.9999C6.40283 12.9999 6.59727 12.9235 6.75005 12.7707L10.0001 9.54158L13.2501 12.7707C13.4028 12.9235 13.5938 13.0034 13.823 13.0103C14.0521 13.0173 14.25 12.9374 14.4167 12.7707C14.5695 12.618 14.6459 12.4235 14.6459 12.1874C14.6459 11.9513 14.5695 11.7569 14.4167 11.6041L10.5834 7.77074C10.5001 7.68741 10.4098 7.62838 10.3126 7.59366C10.2153 7.55894 10.1112 7.54158 10.0001 7.54158Z" fill="#1C1B1F"/>
</g>
</svg>
