<svg viewBox="0 0 20 20" fill="none" xmlns="http://www.w3.org/2000/svg">
<mask id="mask0_835_734" style="mask-type:alpha" maskUnits="userSpaceOnUse" x="0" y="0" width="20" height="20">
<rect width="20" height="20" fill="#D9D9D9"/>
</mask>
<g mask="url(#mask0_835_734)">
<path d="M4.16667 6.6665H15.8333V4.99984H4.16667V6.6665ZM4.16667 18.3332C3.70833 18.3332 3.31597 18.17 2.98958 17.8436C2.66319 17.5172 2.5 17.1248 2.5 16.6665V4.99984C2.5 4.5415 2.66319 4.14914 2.98958 3.82275C3.31597 3.49637 3.70833 3.33317 4.16667 3.33317H5V2.49984C5 2.26373 5.07986 2.06581 5.23958 1.90609C5.39931 1.74637 5.59722 1.6665 5.83333 1.6665C6.06944 1.6665 6.26736 1.74637 6.42708 1.90609C6.58681 2.06581 6.66667 2.26373 6.66667 2.49984V3.33317H13.3333V2.49984C13.3333 2.26373 13.4132 2.06581 13.5729 1.90609C13.7326 1.74637 13.9306 1.6665 14.1667 1.6665C14.4028 1.6665 14.6007 1.74637 14.7604 1.90609C14.9201 2.06581 15 2.26373 15 2.49984V3.33317H15.8333C16.2917 3.33317 16.684 3.49637 17.0104 3.82275C17.3368 4.14914 17.5 4.5415 17.5 4.99984V8.89567C17.5 9.13178 17.4201 9.3297 17.2604 9.48942C17.1007 9.64914 16.9028 9.729 16.6667 9.729C16.4306 9.729 16.2326 9.64914 16.0729 9.48942C15.9132 9.3297 15.8333 9.13178 15.8333 8.89567V8.33317H4.16667V16.6665H9C9.23611 16.6665 9.43403 16.7464 9.59375 16.9061C9.75347 17.0658 9.83333 17.2637 9.83333 17.4998C9.83333 17.7359 9.75347 17.9339 9.59375 18.0936C9.43403 18.2533 9.23611 18.3332 9 18.3332H4.16667ZM15 19.1665C13.8472 19.1665 12.8646 18.7603 12.0521 17.9478C11.2396 17.1353 10.8333 16.1526 10.8333 14.9998C10.8333 13.8471 11.2396 12.8644 12.0521 12.0519C12.8646 11.2394 13.8472 10.8332 15 10.8332C16.1528 10.8332 17.1354 11.2394 17.9479 12.0519C18.7604 12.8644 19.1667 13.8471 19.1667 14.9998C19.1667 16.1526 18.7604 17.1353 17.9479 17.9478C17.1354 18.7603 16.1528 19.1665 15 19.1665ZM15.4167 14.8332V12.9165C15.4167 12.8054 15.375 12.7082 15.2917 12.6248C15.2083 12.5415 15.1111 12.4998 15 12.4998C14.8889 12.4998 14.7917 12.5415 14.7083 12.6248C14.625 12.7082 14.5833 12.8054 14.5833 12.9165V14.8123C14.5833 14.9234 14.6042 15.0311 14.6458 15.1353C14.6875 15.2394 14.75 15.3332 14.8333 15.4165L16.1042 16.6873C16.1875 16.7707 16.2847 16.8123 16.3958 16.8123C16.5069 16.8123 16.6042 16.7707 16.6875 16.6873C16.7708 16.604 16.8125 16.5068 16.8125 16.3957C16.8125 16.2846 16.7708 16.1873 16.6875 16.104L15.4167 14.8332Z" fill="currentColor"/>
</g>
</svg>
