<svg viewBox="0 0 20 20" fill="none" xmlns="http://www.w3.org/2000/svg">
<mask id="mask0_4178_13267" style="mask-type:alpha" maskUnits="userSpaceOnUse" x="0" y="0" width="20" height="20">
<path d="M9.69157 5.18646C9.33419 4.89651 8.80968 4.95117 8.51969 5.30853C8.22982 5.66591 8.28443 6.19045 8.64176 6.48041L11.9531 9.16677H5.83333C5.3731 9.16677 5 9.53987 5 10.0001C5.00008 10.4603 5.37314 10.8334 5.83333 10.8334H11.9531L8.64176 13.5198C8.28446 13.8098 8.22976 14.3343 8.51969 14.6917C8.80967 15.0489 9.33422 15.1036 9.69157 14.8137L14.5996 10.8318L14.5988 10.831C14.8389 10.6374 14.9708 10.3688 14.9951 10.0929C14.9985 10.0624 15 10.0315 15 10.0001C15 9.9688 14.9985 9.93774 14.9951 9.90733C14.9711 9.63101 14.8393 9.36223 14.5988 9.1684L9.69157 5.18646Z" fill="#21272C"/>
</mask>
<g mask="url(#mask0_4178_13267)">
<rect width="20" height="20" fill="currentColor"/>
</g>
</svg>
