<svg width="24" height="24" viewBox="0 0 24 24" fill="none" xmlns="http://www.w3.org/2000/svg">
<path d="M12 2C14.2091 2 16 3.79086 16 6V7.09961C18.2823 7.56285 20 9.58101 20 12V19C20 20.1046 19.1046 21 18 21H6C4.96435 21 4.113 20.2128 4.01074 19.2041L4 19V12C4 9.58101 5.71772 7.56285 8 7.09961V6C8 3.79086 9.79086 2 12 2ZM9 9C7.39489 9 6.08421 10.2606 6.00391 11.8457L6 12V19H18V12C18 10.3431 16.6569 9 15 9H9ZM13.5527 11.1055C14.0467 10.8585 14.6475 11.0588 14.8945 11.5527C15.1415 12.0467 14.9412 12.6475 14.4473 12.8945C12.9067 13.6648 11.0933 13.6648 9.55273 12.8945C9.05876 12.6475 8.85848 12.0467 9.10547 11.5527C9.35246 11.0588 9.95329 10.8585 10.4473 11.1055C11.4248 11.5942 12.5752 11.5942 13.5527 11.1055ZM12 4C10.8954 4 10 4.89543 10 6V7H14V6C14 4.89543 13.1046 4 12 4Z" fill="#21272C"/>
</svg>
