<svg viewBox="0 0 16 16" fill="none" xmlns="http://www.w3.org/2000/svg">
<path d="M6.36663 10.0956L12.0166 4.44561C12.15 4.31227 12.3055 4.24561 12.4833 4.24561C12.6611 4.24561 12.8166 4.31227 12.95 4.44561C13.0833 4.57894 13.15 4.73727 13.15 4.92061C13.15 5.10394 13.0833 5.26227 12.95 5.39561L6.8333 11.5289C6.69997 11.6623 6.54441 11.7289 6.36663 11.7289C6.18886 11.7289 6.0333 11.6623 5.89997 11.5289L2.63437 8.27188C2.50103 8.13855 2.43715 7.98022 2.4427 7.79688C2.44826 7.61355 2.5177 7.45522 2.65103 7.32188C2.78437 7.18855 2.9427 7.12188 3.12603 7.12188C3.30937 7.12188 3.4677 7.18855 3.60103 7.32188L6.36663 10.0956Z" fill="currentColor"/>
</svg>
