<svg width="24" height="24" viewBox="0 0 24 24" fill="none" xmlns="http://www.w3.org/2000/svg">
<g opacity="0.4">
<g clip-path="url(#clip0_2297_7428)">
<rect x="3" y="3" width="18" height="18" rx="4" fill="white"/>
<path d="M21 21H3V3H21V21Z" fill="#FF653E"/>
<path d="M10.7882 13.6472L16.2423 8.19307C16.371 8.06436 16.5212 8 16.6928 8C16.8644 8 17.0146 8.06436 17.1433 8.19307C17.272 8.32178 17.3364 8.47462 17.3364 8.6516C17.3364 8.82858 17.272 8.98142 17.1433 9.11013L11.2387 15.0308C11.11 15.1595 10.9598 15.2239 10.7882 15.2239C10.6166 15.2239 10.4664 15.1595 10.3377 15.0308L7.18534 11.8867C7.05663 11.758 6.99496 11.6051 7.00032 11.4282C7.00568 11.2512 7.07272 11.0983 7.20143 10.9696C7.33014 10.8409 7.48299 10.7766 7.65996 10.7766C7.83694 10.7766 7.98978 10.8409 8.1185 10.9696L10.7882 13.6472Z" fill="white"/>
</g>
</g>
<defs>
<clipPath id="clip0_2297_7428">
<rect x="3" y="3" width="18" height="18" rx="4" fill="white"/>
</clipPath>
</defs>
</svg>
