<svg width="20" height="20" viewBox="0 0 20 20" fill="none" xmlns="http://www.w3.org/2000/svg">
<g opacity="0.4">
<g clip-path="url(#clip0_2297_7438)">
<rect x="2" y="2" width="16" height="16" rx="3.55556" fill="white"/>
<path d="M18 18H2V2H18V18Z" fill="#FF653E"/>
<path d="M8.92284 11.4641L13.7709 6.61595C13.8854 6.50154 14.0188 6.44434 14.1714 6.44434C14.3239 6.44434 14.4574 6.50154 14.5718 6.61595C14.6862 6.73036 14.7434 6.86622 14.7434 7.02353C14.7434 7.18085 14.6862 7.31671 14.5718 7.43112L9.32327 12.694C9.20886 12.8084 9.07539 12.8656 8.92284 12.8656C8.77029 12.8656 8.63682 12.8084 8.52241 12.694L5.72029 9.89917C5.60588 9.78476 5.55106 9.6489 5.55583 9.49159C5.5606 9.33428 5.62018 9.19841 5.73459 9.084C5.849 8.96959 5.98486 8.91239 6.14218 8.91239C6.29949 8.91239 6.43535 8.96959 6.54976 9.084L8.92284 11.4641Z" fill="white"/>
</g>
</g>
<defs>
<clipPath id="clip0_2297_7438">
<rect x="2" y="2" width="16" height="16" rx="3.55556" fill="white"/>
</clipPath>
</defs>
</svg>
