<svg viewBox="0 0 20 20" fill="none" xmlns="http://www.w3.org/2000/svg">
<mask id="mask0_2338_11003" style="mask-type:alpha" maskUnits="userSpaceOnUse" x="0" y="0" width="20" height="20">
<mask id="mask1_2338_11003" style="mask-type:alpha" maskUnits="userSpaceOnUse" x="0" y="0" width="20" height="20">
<rect width="20" height="20" fill="#D9D9D9"/>
</mask>
<g mask="url(#mask1_2338_11003)">
<path d="M10.0001 11.1667L12.4167 13.5834C12.5695 13.7362 12.764 13.8126 13.0001 13.8126C13.2362 13.8126 13.4306 13.7362 13.5834 13.5834C13.7362 13.4306 13.8126 13.2362 13.8126 13.0001C13.8126 12.764 13.7362 12.5695 13.5834 12.4167L11.1667 10.0001L13.5834 7.58341C13.7362 7.43064 13.8126 7.23619 13.8126 7.00008C13.8126 6.76397 13.7362 6.56953 13.5834 6.41675C13.4306 6.26397 13.2362 6.18758 13.0001 6.18758C12.764 6.18758 12.5695 6.26397 12.4167 6.41675L10.0001 8.83341L7.58341 6.41675C7.43064 6.26397 7.23619 6.18758 7.00008 6.18758C6.76397 6.18758 6.56953 6.26397 6.41675 6.41675C6.26397 6.56953 6.18758 6.76397 6.18758 7.00008C6.18758 7.23619 6.26397 7.43064 6.41675 7.58341L8.83341 10.0001L6.41675 12.4167C6.26397 12.5695 6.18758 12.764 6.18758 13.0001C6.18758 13.2362 6.26397 13.4306 6.41675 13.5834C6.56953 13.7362 6.76397 13.8126 7.00008 13.8126C7.23619 13.8126 7.43064 13.7362 7.58341 13.5834L10.0001 11.1667ZM10.0001 18.3334C8.8473 18.3334 7.76397 18.1147 6.75008 17.6772C5.73619 17.2397 4.85425 16.6459 4.10425 15.8959C3.35425 15.1459 2.7605 14.264 2.323 13.2501C1.8855 12.2362 1.66675 11.1529 1.66675 10.0001C1.66675 8.8473 1.8855 7.76397 2.323 6.75008C2.7605 5.73619 3.35425 4.85425 4.10425 4.10425C4.85425 3.35425 5.73619 2.7605 6.75008 2.323C7.76397 1.8855 8.8473 1.66675 10.0001 1.66675C11.1529 1.66675 12.2362 1.8855 13.2501 2.323C14.264 2.7605 15.1459 3.35425 15.8959 4.10425C16.6459 4.85425 17.2397 5.73619 17.6772 6.75008C18.1147 7.76397 18.3334 8.8473 18.3334 10.0001C18.3334 11.1529 18.1147 12.2362 17.6772 13.2501C17.2397 14.264 16.6459 15.1459 15.8959 15.8959C15.1459 16.6459 14.264 17.2397 13.2501 17.6772C12.2362 18.1147 11.1529 18.3334 10.0001 18.3334Z" fill="#1C1B1F"/>
</g>
</mask>
<g mask="url(#mask0_2338_11003)">
<rect width="20" height="20" fill="currentColor"/>
</g>
</svg>
