<svg width="16" height="16" viewBox="0 0 16 16" fill="none" xmlns="http://www.w3.org/2000/svg">
<mask id="mask0_3204_3850" style="mask-type:alpha" maskUnits="userSpaceOnUse" x="0" y="0" width="16" height="16">
<mask id="mask1_3204_3850" style="mask-type:alpha" maskUnits="userSpaceOnUse" x="0" y="0" width="16" height="16">
<rect width="16" height="16" fill="#D9D9D9"/>
</mask>
<g mask="url(#mask1_3204_3850)">
<path d="M8.00016 8.93337L9.9335 10.8667C10.0557 10.9889 10.2113 11.05 10.4002 11.05C10.5891 11.05 10.7446 10.9889 10.8668 10.8667C10.9891 10.7445 11.0502 10.5889 11.0502 10.4C11.0502 10.2112 10.9891 10.0556 10.8668 9.93337L8.9335 8.00004L10.8668 6.06671C10.9891 5.94448 11.0502 5.78893 11.0502 5.60004C11.0502 5.41115 10.9891 5.2556 10.8668 5.13337C10.7446 5.01115 10.5891 4.95004 10.4002 4.95004C10.2113 4.95004 10.0557 5.01115 9.9335 5.13337L8.00016 7.06671L6.06683 5.13337C5.94461 5.01115 5.78905 4.95004 5.60016 4.95004C5.41127 4.95004 5.25572 5.01115 5.1335 5.13337C5.01127 5.2556 4.95016 5.41115 4.95016 5.60004C4.95016 5.78893 5.01127 5.94448 5.1335 6.06671L7.06683 8.00004L5.1335 9.93337C5.01127 10.0556 4.95016 10.2112 4.95016 10.4C4.95016 10.5889 5.01127 10.7445 5.1335 10.8667C5.25572 10.9889 5.41127 11.05 5.60016 11.05C5.78905 11.05 5.94461 10.9889 6.06683 10.8667L8.00016 8.93337ZM8.00016 14.6667C7.07794 14.6667 6.21127 14.4917 5.40016 14.1417C4.58905 13.7917 3.8835 13.3167 3.2835 12.7167C2.6835 12.1167 2.2085 11.4112 1.8585 10.6C1.5085 9.78893 1.3335 8.92226 1.3335 8.00004C1.3335 7.07782 1.5085 6.21115 1.8585 5.40004C2.2085 4.58893 2.6835 3.88337 3.2835 3.28337C3.8835 2.68337 4.58905 2.20837 5.40016 1.85837C6.21127 1.50837 7.07794 1.33337 8.00016 1.33337C8.92238 1.33337 9.78905 1.50837 10.6002 1.85837C11.4113 2.20837 12.1168 2.68337 12.7168 3.28337C13.3168 3.88337 13.7918 4.58893 14.1418 5.40004C14.4918 6.21115 14.6668 7.07782 14.6668 8.00004C14.6668 8.92226 14.4918 9.78893 14.1418 10.6C13.7918 11.4112 13.3168 12.1167 12.7168 12.7167C12.1168 13.3167 11.4113 13.7917 10.6002 14.1417C9.78905 14.4917 8.92238 14.6667 8.00016 14.6667Z" fill="#1C1B1F"/>
</g>
</mask>
<g mask="url(#mask0_3204_3850)">
<rect width="16" height="16" fill="#FF653E"/>
</g>
</svg>
