<svg viewBox="0 0 16 16" fill="none" xmlns="http://www.w3.org/2000/svg">
<path d="M7.33353 14.6335V13.9669C5.94464 13.8113 4.75297 13.2363 3.75853 12.2419C2.76408 11.2474 2.18908 10.0558 2.03353 8.66686H1.36686C1.17797 8.66686 1.01964 8.60297 0.891862 8.4752C0.764084 8.34742 0.700195 8.18908 0.700195 8.00019C0.700195 7.81131 0.764084 7.65297 0.891862 7.5252C1.01964 7.39742 1.17797 7.33353 1.36686 7.33353H2.03353C2.18908 5.94464 2.76408 4.75297 3.75853 3.75853C4.75297 2.76408 5.94464 2.18908 7.33353 2.03353V1.36686C7.33353 1.17797 7.39742 1.01964 7.5252 0.891862C7.65297 0.764084 7.81131 0.700195 8.00019 0.700195C8.18908 0.700195 8.34742 0.764084 8.4752 0.891862C8.60297 1.01964 8.66686 1.17797 8.66686 1.36686V2.03353C10.0558 2.18908 11.2474 2.76408 12.2419 3.75853C13.2363 4.75297 13.8113 5.94464 13.9669 7.33353H14.6335C14.8224 7.33353 14.9808 7.39742 15.1085 7.5252C15.2363 7.65297 15.3002 7.81131 15.3002 8.00019C15.3002 8.18908 15.2363 8.34742 15.1085 8.4752C14.9808 8.60297 14.8224 8.66686 14.6335 8.66686H13.9669C13.8113 10.0558 13.2363 11.2474 12.2419 12.2419C11.2474 13.2363 10.0558 13.8113 8.66686 13.9669V14.6335C8.66686 14.8224 8.60297 14.9808 8.4752 15.1085C8.34742 15.2363 8.18908 15.3002 8.00019 15.3002C7.81131 15.3002 7.65297 15.2363 7.5252 15.1085C7.39742 14.9808 7.33353 14.8224 7.33353 14.6335ZM11.3002 11.3002C12.2113 10.3891 12.6669 9.28908 12.6669 8.00019C12.6669 6.71131 12.2113 5.61131 11.3002 4.7002C10.3891 3.78908 9.28908 3.33353 8.00019 3.33353C6.71131 3.33353 5.61131 3.78908 4.7002 4.7002C3.78908 5.61131 3.33353 6.71131 3.33353 8.00019C3.33353 9.28908 3.78908 10.3891 4.7002 11.3002C5.61131 12.2113 6.71131 12.6669 8.00019 12.6669C9.28908 12.6669 10.3891 12.2113 11.3002 11.3002ZM6.11686 9.88353C5.59464 9.36131 5.33353 8.73353 5.33353 8.00019C5.33353 7.26686 5.59464 6.63908 6.11686 6.11686C6.63908 5.59464 7.26686 5.33353 8.00019 5.33353C8.73353 5.33353 9.36131 5.59464 9.88353 6.11686C10.4058 6.63908 10.6669 7.26686 10.6669 8.00019C10.6669 8.73353 10.4058 9.36131 9.88353 9.88353C9.36131 10.4058 8.73353 10.6669 8.00019 10.6669C7.26686 10.6669 6.63908 10.4058 6.11686 9.88353ZM8.94186 8.94186C9.20297 8.68075 9.33353 8.36686 9.33353 8.00019C9.33353 7.63353 9.20297 7.31964 8.94186 7.05853C8.68075 6.79742 8.36686 6.66686 8.00019 6.66686C7.63353 6.66686 7.31964 6.79742 7.05853 7.05853C6.79742 7.31964 6.66686 7.63353 6.66686 8.00019C6.66686 8.36686 6.79742 8.68075 7.05853 8.94186C7.31964 9.20297 7.63353 9.33353 8.00019 9.33353C8.36686 9.33353 8.68075 9.20297 8.94186 8.94186Z" fill="currentColor"/>
</svg>
