<svg width="28" height="28" viewBox="13.6666 8.90845 28 28" fill="none" xmlns="http://www.w3.org/2000/svg" style="overflow:visible">
<g filter="url(#filter0_d_658_1260)">
<mask id="mask0_658_1260" style="mask-type:alpha" maskUnits="userSpaceOnUse" x="13" y="8" width="29" height="29">
<rect x="13.6666" y="8.90845" width="28" height="28" fill="#D4D4D3"/>
</mask>
<g mask="url(#mask0_658_1260)">
<path d="M27.6667 32.6208C27.3944 32.6208 27.1174 32.5722 26.8354 32.475C26.5535 32.3778 26.3056 32.2222 26.0917 32.0083L24.0792 30.1708C22.0181 28.2847 20.1563 26.4132 18.4938 24.5563C16.8313 22.6993 16 20.6528 16 18.4167C16 16.5889 16.6125 15.0625 17.8375 13.8375C19.0625 12.6125 20.5889 12 22.4167 12C23.4472 12 24.4194 12.2188 25.3333 12.6563C26.2472 13.0938 27.025 13.6917 27.6667 14.45C28.3083 13.6917 29.0861 13.0938 30 12.6563C30.9139 12.2188 31.8861 12 32.9167 12C34.7444 12 36.2708 12.6125 37.4958 13.8375C38.7208 15.0625 39.3333 16.5889 39.3333 18.4167C39.3333 20.6528 38.5069 22.7042 36.8542 24.5708C35.2014 26.4375 33.325 28.3139 31.225 30.2L29.2417 32.0083C29.0278 32.2222 28.7799 32.3778 28.4979 32.475C28.216 32.5722 27.9389 32.6208 27.6667 32.6208Z" fill="currentColor"/>
</g>
</g>
<defs>
<filter id="filter0_d_658_1260" x="0" y="0" width="55.3334" height="52.6208" filterUnits="userSpaceOnUse" color-interpolation-filters="sRGB">
<feFlood flood-opacity="0" result="BackgroundImageFix"/>
<feColorMatrix in="SourceAlpha" type="matrix" values="0 0 0 0 0 0 0 0 0 0 0 0 0 0 0 0 0 0 127 0" result="hardAlpha"/>
<feOffset dy="4"/>
<feGaussianBlur stdDeviation="8"/>
<feComposite in2="hardAlpha" operator="out"/>
<feColorMatrix type="matrix" values="0 0 0 0 0 0 0 0 0 0 0 0 0 0 0 0 0 0 0.16 0"/>
<feBlend mode="normal" in2="BackgroundImageFix" result="effect1_dropShadow_658_1260"/>
<feBlend mode="normal" in="SourceGraphic" in2="effect1_dropShadow_658_1260" result="shape"/>
</filter>
</defs>
</svg>
