<svg width="16" height="16" viewBox="0 0 16 16" fill="none" xmlns="http://www.w3.org/2000/svg">
<mask id="mask0_3204_9070" style="mask-type:alpha" maskUnits="userSpaceOnUse" x="0" y="0" width="16" height="16">
<mask id="mask1_3204_9070" style="mask-type:alpha" maskUnits="userSpaceOnUse" x="0" y="0" width="16" height="16">
<rect width="16" height="16" fill="#D9D9D9"/>
</mask>
<g mask="url(#mask1_3204_9070)">
<path d="M6.66667 12.6664C6.47778 12.6664 6.31944 12.6025 6.19167 12.4747C6.06389 12.3469 6 12.1886 6 11.9997C6 11.8108 6.06389 11.6525 6.19167 11.5247C6.31944 11.3969 6.47778 11.333 6.66667 11.333H13.3333C13.5222 11.333 13.6806 11.3969 13.8083 11.5247C13.9361 11.6525 14 11.8108 14 11.9997C14 12.1886 13.9361 12.3469 13.8083 12.4747C13.6806 12.6025 13.5222 12.6664 13.3333 12.6664H6.66667ZM6.66667 8.66638C6.47778 8.66638 6.31944 8.60249 6.19167 8.47472C6.06389 8.34694 6 8.1886 6 7.99972C6 7.81083 6.06389 7.65249 6.19167 7.52472C6.31944 7.39694 6.47778 7.33305 6.66667 7.33305H13.3333C13.5222 7.33305 13.6806 7.39694 13.8083 7.52472C13.9361 7.65249 14 7.81083 14 7.99972C14 8.1886 13.9361 8.34694 13.8083 8.47472C13.6806 8.60249 13.5222 8.66638 13.3333 8.66638H6.66667ZM6.66667 4.66638C6.47778 4.66638 6.31944 4.60249 6.19167 4.47472C6.06389 4.34694 6 4.1886 6 3.99972C6 3.81083 6.06389 3.65249 6.19167 3.52472C6.31944 3.39694 6.47778 3.33305 6.66667 3.33305H13.3333C13.5222 3.33305 13.6806 3.39694 13.8083 3.52472C13.9361 3.65249 14 3.81083 14 3.99972C14 4.1886 13.9361 4.34694 13.8083 4.47472C13.6806 4.60249 13.5222 4.66638 13.3333 4.66638H6.66667ZM3.33333 13.333C2.96667 13.333 2.65278 13.2025 2.39167 12.9414C2.13056 12.6803 2 12.3664 2 11.9997C2 11.633 2.13056 11.3192 2.39167 11.058C2.65278 10.7969 2.96667 10.6664 3.33333 10.6664C3.7 10.6664 4.01389 10.7969 4.275 11.058C4.53611 11.3192 4.66667 11.633 4.66667 11.9997C4.66667 12.3664 4.53611 12.6803 4.275 12.9414C4.01389 13.2025 3.7 13.333 3.33333 13.333ZM3.33333 9.33305C2.96667 9.33305 2.65278 9.20249 2.39167 8.94138C2.13056 8.68027 2 8.36638 2 7.99972C2 7.63305 2.13056 7.31916 2.39167 7.05805C2.65278 6.79694 2.96667 6.66638 3.33333 6.66638C3.7 6.66638 4.01389 6.79694 4.275 7.05805C4.53611 7.31916 4.66667 7.63305 4.66667 7.99972C4.66667 8.36638 4.53611 8.68027 4.275 8.94138C4.01389 9.20249 3.7 9.33305 3.33333 9.33305ZM3.33333 5.33305C2.96667 5.33305 2.65278 5.20249 2.39167 4.94138C2.13056 4.68027 2 4.36638 2 3.99972C2 3.63305 2.13056 3.31916 2.39167 3.05805C2.65278 2.79694 2.96667 2.66638 3.33333 2.66638C3.7 2.66638 4.01389 2.79694 4.275 3.05805C4.53611 3.31916 4.66667 3.63305 4.66667 3.99972C4.66667 4.36638 4.53611 4.68027 4.275 4.94138C4.01389 5.20249 3.7 5.33305 3.33333 5.33305Z" fill="#21272C"/>
</g>
</mask>
<g mask="url(#mask0_3204_9070)">
<rect width="16" height="16" fill="#1F1F1E"/>
</g>
</svg>
