<svg viewBox="0 0 16 16" fill="none" xmlns="http://www.w3.org/2000/svg">
<path d="M7.99996 14.2168C7.8444 14.2168 7.68885 14.1891 7.53329 14.1335C7.37774 14.0779 7.23885 13.9946 7.11663 13.8835C6.3944 13.2168 5.75551 12.5668 5.19996 11.9335C4.6444 11.3002 4.18051 10.6863 3.80829 10.0918C3.43607 9.49739 3.15274 8.92516 2.95829 8.37516C2.76385 7.82516 2.66663 7.30016 2.66663 6.80016C2.66663 5.1335 3.20274 3.80572 4.27496 2.81683C5.34718 1.82794 6.58885 1.3335 7.99996 1.3335C9.41107 1.3335 10.6527 1.82794 11.725 2.81683C12.7972 3.80572 13.3333 5.1335 13.3333 6.80016C13.3333 7.30016 13.2361 7.82516 13.0416 8.37516C12.8472 8.92516 12.5638 9.49739 12.1916 10.0918C11.8194 10.6863 11.3555 11.3002 10.8 11.9335C10.2444 12.5668 9.60552 13.2168 8.88329 13.8835C8.76107 13.9946 8.62218 14.0779 8.46663 14.1335C8.31107 14.1891 8.15552 14.2168 7.99996 14.2168ZM7.99996 8.00016C8.36663 8.00016 8.68052 7.86961 8.94163 7.6085C9.20274 7.34739 9.33329 7.0335 9.33329 6.66683C9.33329 6.30016 9.20274 5.98627 8.94163 5.72516C8.68052 5.46405 8.36663 5.3335 7.99996 5.3335C7.63329 5.3335 7.3194 5.46405 7.05829 5.72516C6.79718 5.98627 6.66663 6.30016 6.66663 6.66683C6.66663 7.0335 6.79718 7.34739 7.05829 7.6085C7.3194 7.86961 7.63329 8.00016 7.99996 8.00016Z" fill="currentColor"/>
</svg>
