<svg viewBox="0 0 100 100" fill="none" xmlns="http://www.w3.org/2000/svg">
<g clip-path="url(#clip0_4926_21352)">
<path d="M78.667 46.568C76.6502 37.6135 69.966 31.2866 49.5102 31.2866C29.0543 31.2866 22.2434 37.7403 20.2957 46.8216C4.92212 51.051 4.18456 59.7289 4.00017 71.092C3.9656 72.8668 4.71468 74.5724 6.09762 75.6903C10.0735 78.9056 20.4916 85.5782 49.5102 85.5782C78.5287 85.5782 89.5 78.7558 93.1186 75.552C94.3402 74.4687 95.0317 72.9014 95.0086 71.2649C94.8704 59.5791 94.7321 50.7053 78.6555 46.5565L78.667 46.568Z" fill="#FF653E"/>
<path d="M55.2725 22.0671C55.2725 25.2478 52.691 27.8293 49.5103 27.8293C46.3295 27.8293 43.748 25.2478 43.748 22.0671C43.748 18.8864 47.0786 14 49.5103 14C51.9419 14 55.2725 18.8864 55.2725 22.0671Z" fill="#FF653E"/>
<path d="M49.51 25.5244C50.7829 25.5244 51.8149 24.4925 51.8149 23.2195C51.8149 21.9466 50.7829 20.9146 49.51 20.9146C48.237 20.9146 47.2051 21.9466 47.2051 23.2195C47.2051 24.4925 48.237 25.5244 49.51 25.5244Z" fill="white"/>
<path d="M29.5271 55.7069V38.766H38.1244C40.1527 38.766 41.7085 39.2961 42.7918 40.3679C43.852 41.4051 44.3937 42.8572 44.3937 44.7241C44.3937 46.7409 43.7944 48.2852 42.5728 49.3454C41.4319 50.3481 39.8415 50.8436 37.8247 50.8436H32.6157V55.7069H29.5156H29.5271ZM32.6272 48.0316H37.8824C40.1296 48.0316 41.2475 46.9599 41.2475 44.8048C41.2475 42.6497 40.1066 41.578 37.8363 41.578H32.6272V48.0432V48.0316Z" fill="white"/>
<path d="M48.2998 56.0641V30.0304H51.3999V56.0641H48.2998Z" fill="white"/>
<path d="M57.9576 53.448C56.471 51.8692 55.7334 49.8178 55.7334 47.3055C55.7334 44.7932 56.5516 42.7188 58.1766 41.0593C59.9168 39.2845 62.2678 38.3971 65.218 38.3971C66.4972 38.3971 67.7188 38.6161 68.8943 39.054C69.8624 39.3882 70.7382 39.8492 71.5104 40.437V43.6062H71.4873C69.1939 42.0043 67.085 41.2091 65.1489 41.2091C63.2128 41.2091 61.7146 41.7853 60.5737 42.9493C59.4788 44.0787 58.9257 45.5192 58.9257 47.2825C58.9257 49.0457 59.4443 50.4402 60.493 51.5465C61.6109 52.6874 63.1436 53.2636 65.0912 53.2636C67.3155 53.2636 69.4475 52.4915 71.4758 50.9357H71.4988V54.1049C70.7613 54.6581 69.8739 55.096 68.8367 55.4418C67.5805 55.8566 66.2667 56.0756 64.8953 56.0756C61.899 56.0756 59.5826 55.1998 57.9461 53.4596L57.9576 53.448Z" fill="white"/>
<path d="M15.0172 72.256C13.5305 70.6772 12.793 68.6258 12.793 66.1135C12.793 63.6012 13.6112 61.5268 15.2361 59.8672C16.9763 58.0925 19.3273 57.2051 22.2776 57.2051C23.5568 57.2051 24.7784 57.4241 25.9539 57.862C26.9219 58.1962 27.7978 58.6572 28.5699 59.2449V62.4141H28.5469C26.2535 60.8122 24.1445 60.0171 22.2084 60.0171C20.2723 60.0171 18.7742 60.5933 17.6332 61.7572C16.5384 62.8866 15.9852 64.3272 15.9852 66.0904C15.9852 67.8537 16.5038 69.2481 17.5526 70.3545C18.6704 71.4954 20.2032 72.0716 22.1508 72.0716C24.375 72.0716 26.507 71.2995 28.5353 69.7437H28.5584V72.9129C27.8208 73.4661 26.9335 73.904 25.8963 74.2497C24.6401 74.6646 23.3263 74.8836 21.9549 74.8836C18.9585 74.8836 16.6421 74.0077 15.0057 72.2675L15.0172 72.256Z" fill="white"/>
<path d="M30.9443 72.7747L37.6746 55.8338H42.7108L49.418 72.7747H46.1796L44.4855 68.4645H35.8422L34.1481 72.7747H30.9559H30.9443ZM39.6799 58.7379L36.8909 65.7563H43.4023L40.6479 58.7379H39.6799Z" fill="white"/>
<path d="M52.9902 76.232V59.2911H56.0903V66.1942H59.4093L65.4366 59.2911H69.0207V59.3141L61.9102 67.4504L69.4587 76.209V76.232H65.6786L59.3172 68.9486H56.1018V76.232H53.0018H52.9902Z" fill="white"/>
<path d="M71.8213 73.6751V56.7341H85.7313L85.8235 59.5461H74.8868V63.4875H83.7952V66.2994H74.8868V70.8746H86.2153L86.1001 73.6866H71.8213V73.6751Z" fill="white"/>
</g>
<defs>
<clipPath id="clip0_4926_21352">
<rect width="91.02" height="71.5783" fill="white" transform="translate(4 14)"/>
</clipPath>
</defs>
</svg>
