<svg viewBox="0 0 24 24" fill="none" xmlns="http://www.w3.org/2000/svg">
<mask id="mask0_2412_766" style="mask-type:alpha" maskUnits="userSpaceOnUse" x="0" y="0" width="24" height="24">
<mask id="mask1_2412_766" style="mask-type:alpha" maskUnits="userSpaceOnUse" x="0" y="0" width="24" height="24">
<rect width="24" height="24" fill="#D4D4D3"/>
</mask>
<g mask="url(#mask1_2412_766)">
<path d="M4.35 20.7001C4.01667 20.8334 3.70833 20.7959 3.425 20.5876C3.14167 20.3793 3 20.1001 3 19.7501V5.7501C3 5.53343 3.0625 5.34176 3.1875 5.1751C3.3125 5.00843 3.48333 4.88343 3.7 4.8001L8.35 3.2251C8.56667 3.14176 8.78333 3.1001 9 3.1001C9.21667 3.1001 9.43333 3.14176 9.65 3.2251L15 5.1001L19.65 3.3001C19.9833 3.16676 20.2917 3.20426 20.575 3.4126C20.8583 3.62093 21 3.9001 21 4.2501V11.6751C21 11.9584 20.9042 12.1959 20.7125 12.3876C20.5208 12.5793 20.2833 12.6751 20 12.6751C19.7167 12.6751 19.4792 12.5793 19.2875 12.3876C19.0958 12.1959 19 11.9584 19 11.6751V5.7001L16 6.8501V9.3501C16 9.63343 15.9042 9.87093 15.7125 10.0626C15.5208 10.2543 15.2833 10.3501 15 10.3501C14.7167 10.3501 14.4792 10.2543 14.2875 10.0626C14.0958 9.87093 14 9.63343 14 9.3501V6.8501L10 5.4501V17.4751C10 17.7918 9.9125 18.0751 9.7375 18.3251C9.5625 18.5751 9.33333 18.7584 9.05 18.8751L4.35 20.7001ZM5 18.3001L8 17.1501V5.4501L5 6.4501V18.3001ZM16 18.0001C16.5667 18.0001 17.0375 17.8334 17.4125 17.5001C17.7875 17.1668 17.9833 16.6668 18 16.0001C18.0167 15.4334 17.8292 14.9584 17.4375 14.5751C17.0458 14.1918 16.5667 14.0001 16 14.0001C15.4333 14.0001 14.9583 14.1918 14.575 14.5751C14.1917 14.9584 14 15.4334 14 16.0001C14 16.5668 14.1917 17.0418 14.575 17.4251C14.9583 17.8084 15.4333 18.0001 16 18.0001ZM16 20.0001C14.9 20.0001 13.9583 19.6084 13.175 18.8251C12.3917 18.0418 12 17.1001 12 16.0001C12 14.9001 12.3917 13.9584 13.175 13.1751C13.9583 12.3918 14.9 12.0001 16 12.0001C17.1 12.0001 18.0417 12.3918 18.825 13.1751C19.6083 13.9584 20 14.9001 20 16.0001C20 16.3834 19.9542 16.7459 19.8625 17.0876C19.7708 17.4293 19.6333 17.7501 19.45 18.0501L21.3 19.9001C21.4833 20.0834 21.575 20.3168 21.575 20.6001C21.575 20.8834 21.4833 21.1168 21.3 21.3001C21.1167 21.4834 20.8833 21.5751 20.6 21.5751C20.3167 21.5751 20.0833 21.4834 19.9 21.3001L18.05 19.4501C17.75 19.6334 17.4292 19.7709 17.0875 19.8626C16.7458 19.9543 16.3833 20.0001 16 20.0001Z" fill="#1C1B1F"/>
</g>
</mask>
<g mask="url(#mask0_2412_766)">
<rect width="24" height="24" fill="currentColor"/>
</g>
</svg>
