<svg width="62" height="57" viewBox="0 0 62 57" fill="none" xmlns="http://www.w3.org/2000/svg">
<path d="M32.8726 55.5492C33.2616 55.5451 33.5799 55.8646 33.584 56.263C33.588 56.6614 33.2761 56.9881 32.887 56.9922C32.3958 56.9974 31.8959 57 31.3878 57C30.8705 57 30.3615 56.9975 29.861 56.9922C29.4721 56.988 29.1601 56.6613 29.1641 56.263C29.1682 55.8647 29.4866 55.5453 29.8755 55.5492C30.371 55.5544 30.8753 55.557 31.3878 55.557C31.8911 55.557 32.3862 55.5544 32.8726 55.5492ZM38.7849 55.3456C39.1733 55.322 39.507 55.625 39.5301 56.0227C39.5531 56.4205 39.2566 56.7621 38.8682 56.7858C37.9121 56.844 36.9163 56.8915 35.8793 56.9267C35.4905 56.9398 35.165 56.6274 35.1521 56.2292C35.1392 55.831 35.4438 55.4977 35.8325 55.4844C36.8577 55.4496 37.8415 55.403 38.7849 55.3456ZM23.8497 55.3435C24.8119 55.4013 25.8143 55.4487 26.8585 55.4837C27.2474 55.4967 27.5523 55.8302 27.5396 56.2285C27.5268 56.6266 27.2012 56.9391 26.8124 56.926C25.7564 56.8906 24.7419 56.843 23.7671 56.7844C23.3788 56.7611 23.0826 56.4197 23.1052 56.022C23.128 55.6242 23.4612 55.3201 23.8497 55.3435ZM44.6546 54.7953C45.0404 54.7448 45.3929 55.0245 45.4424 55.4196C45.4917 55.8147 45.2193 56.1764 44.8335 56.227C43.8933 56.3501 42.9012 56.4613 41.8549 56.5582C41.4674 56.5941 41.1249 56.3012 41.0898 55.9043C41.0548 55.5076 41.3403 55.1569 41.7276 55.1208C42.7574 55.0254 43.7323 54.9159 44.6546 54.7953ZM17.8679 54.7925C18.8087 54.9132 19.8018 55.0224 20.8498 55.118C21.2374 55.1534 21.5235 55.5039 21.489 55.9008C21.4545 56.2977 21.1122 56.5907 20.7246 56.5554C19.6606 56.4584 18.6506 56.3472 17.6924 56.2242C17.3064 56.1746 17.0331 55.8142 17.0814 55.4189C17.1298 55.0235 17.4818 54.7429 17.8679 54.7925ZM50.4396 53.7518C50.8185 53.6609 51.1979 53.9021 51.2866 54.2901C51.3751 54.678 51.1397 55.0659 50.7609 55.1567C49.8521 55.3746 48.8695 55.5804 47.8078 55.7698C47.4246 55.838 47.06 55.5753 46.9932 55.1828C46.9265 54.7903 47.183 54.4169 47.5663 54.3486C48.6029 54.1637 49.5586 53.963 50.4396 53.7518ZM11.1168 54.2943C11.2033 53.906 11.5811 53.6627 11.9604 53.7511C12.8621 53.9614 13.8381 54.1609 14.8942 54.345C15.2777 54.4119 15.536 54.7851 15.4707 55.1779C15.4053 55.5705 15.0416 55.8344 14.6582 55.7676C13.5778 55.5793 12.5757 55.3747 11.6473 55.1582C11.2681 55.0695 11.0304 54.6828 11.1168 54.2943ZM5.37721 52.3341C5.52842 51.967 5.94137 51.7946 6.29987 51.9494C7.0989 52.2945 8.02202 52.64 9.08642 52.9732C9.45844 53.0897 9.66799 53.4933 9.55429 53.8744C9.44054 54.2554 9.04639 54.4699 8.67429 54.3535C7.5672 54.007 6.59876 53.6446 5.75219 53.279C5.39381 53.1241 5.22607 52.7012 5.37721 52.3341ZM55.9638 51.9289C56.3198 51.768 56.7362 51.9336 56.8934 52.2981C57.0503 52.6625 56.8892 53.0884 56.5335 53.2494C55.7113 53.6212 54.7659 53.9893 53.6796 54.3415C53.3086 54.4618 52.9129 54.2514 52.7954 53.8715C52.678 53.4916 52.8834 53.0864 53.2543 52.9661C54.2955 52.6286 55.1921 52.2779 55.9638 51.9289ZM1.06871 49.0746C1.37958 48.8349 1.82133 48.8986 2.05536 49.2169C2.19826 49.4113 2.36327 49.5892 2.54937 49.7461H2.55006C2.85793 50.0056 3.23891 50.2914 3.70803 50.593C4.0376 50.8048 4.13712 51.2504 3.93026 51.5879C3.72344 51.9253 3.28897 52.0271 2.95944 51.8155C2.44134 51.4825 2.01074 51.1606 1.65423 50.86C1.3805 50.6293 1.1383 50.3687 0.92973 50.085C0.69575 49.7667 0.758007 49.3143 1.06871 49.0746ZM60.0061 49.1732C60.2322 48.849 60.672 48.774 60.9886 49.0055C61.3052 49.2371 61.3785 49.6874 61.1523 50.0117C60.966 50.2789 60.7511 50.5269 60.5097 50.7501L60.5083 50.7515C60.1718 51.0611 59.7593 51.3954 59.2547 51.7422C58.9317 51.9641 58.4938 51.8757 58.277 51.5449C58.0603 51.2141 58.1466 50.7657 58.4697 50.5437C58.9206 50.2337 59.2798 49.9414 59.565 49.6791C59.7301 49.5265 59.8779 49.3569 60.0061 49.1732ZM61.2652 45.0907C61.6542 45.084 61.9749 45.4018 61.9814 45.8003C61.9892 46.2704 61.9945 46.7474 62 47.2292L61.9972 47.4779C61.9878 47.7255 61.9593 47.9706 61.9126 48.2107C61.8366 48.6014 61.4657 48.8549 61.0842 48.7772C60.7026 48.6994 60.4544 48.3197 60.5304 47.9289C60.5734 47.7071 60.5947 47.4792 60.5916 47.2489V47.2475C60.5861 46.7647 60.58 46.2905 60.5723 45.8242C60.5659 45.4259 60.8762 45.0974 61.2652 45.0907ZM0.752216 44.9921C1.14119 45.0027 1.44862 45.335 1.43819 45.7333C1.42627 46.1885 1.41731 46.6517 1.40998 47.1228V47.1249C1.40525 47.3781 1.42717 47.6285 1.47397 47.8711C1.54916 48.2618 1.30093 48.6414 0.91941 48.7187C0.537805 48.796 0.167301 48.5415 0.0916995 48.1508C0.0253353 47.8069 -0.00576376 47.4534 0.000878429 47.0974C0.00824643 46.6243 0.016998 46.1564 0.029088 45.6946C0.0395157 45.2963 0.363346 44.9815 0.752216 44.9921ZM60.7423 39.4179C61.1254 39.3483 61.4909 39.6097 61.559 40.002C61.7215 40.9395 61.8199 41.9136 61.8817 42.9163C61.9061 43.3139 61.6108 43.6564 61.2225 43.6815C60.8343 43.7064 60.4999 43.4047 60.4753 43.0072C60.4157 42.0399 60.3224 41.1226 60.1719 40.2543C60.1039 39.8619 60.3592 39.4876 60.7423 39.4179ZM0.552685 40.0105C0.630939 39.6202 1.00341 39.3688 1.38452 39.4489C1.76568 39.5291 2.01115 39.9104 1.93289 40.3008C1.76302 41.148 1.65027 42.0421 1.57373 42.9832C1.5413 43.3801 1.20099 43.6749 0.813452 43.642C0.425779 43.609 0.137321 43.2604 0.169448 42.8634C0.249251 41.8822 0.368592 40.9287 0.552685 40.0105ZM2.87344 34.6428C3.1155 34.3308 3.55887 34.2793 3.86353 34.5272C4.16809 34.7751 4.21896 35.2285 3.97705 35.5404C3.44058 36.2319 3.01893 36.9755 2.68629 37.7712C2.53316 38.1376 2.11859 38.3078 1.76088 38.151C1.40329 37.9941 1.23761 37.5696 1.39072 37.2033C1.76884 36.2988 2.25288 35.4426 2.87344 34.6428ZM58.3156 34.3468C58.6221 34.1015 59.0646 34.157 59.3043 34.4709C59.9333 35.2949 60.4131 36.1798 60.7787 37.116C60.9231 37.4859 60.7471 37.9058 60.3859 38.0538C60.0246 38.2017 59.6146 38.0214 59.4701 37.6515C59.1493 36.8302 58.7342 36.0664 58.1945 35.3594C57.9549 35.0454 58.009 34.5923 58.3156 34.3468ZM7.4083 31.0697C7.75818 30.8956 8.17939 31.0447 8.34953 31.403C8.51971 31.7613 8.37402 32.1933 8.02409 32.3676C7.1744 32.7908 6.44097 33.2478 5.80654 33.7352C5.49528 33.9744 5.0534 33.9095 4.8199 33.5908C4.58654 33.2721 4.64981 32.8202 4.96095 32.5811C5.6745 32.0329 6.48637 31.5288 7.4083 31.0697ZM53.7119 31.2015C53.8765 30.8405 54.2958 30.6843 54.6483 30.8527C55.6016 31.3087 56.4368 31.8122 57.1665 32.3627C57.4798 32.599 57.5466 33.0508 57.3158 33.3717C57.0851 33.6925 56.6439 33.7609 56.3306 33.5246C55.6841 33.0369 54.9312 32.5808 54.0525 32.1604C53.7 31.9918 53.5473 31.5625 53.7119 31.2015ZM11.2668 28.5451C11.3849 28.1654 11.7815 27.9556 12.1523 28.0765C12.5228 28.1975 12.7278 28.6031 12.6099 28.9827C12.4662 29.4447 12.3449 29.9218 12.2438 30.413L12.1558 30.8414L11.7443 30.9591C11.2991 31.0868 10.8736 31.2204 10.4673 31.3593C10.0984 31.4853 9.6996 31.2811 9.57631 30.9034C9.45311 30.5254 9.65237 30.1164 10.0215 29.9902C10.3242 29.8868 10.6364 29.7885 10.9572 29.6915C11.047 29.3034 11.1499 28.9211 11.2668 28.5451ZM49.8011 27.9159C50.1707 27.7916 50.5685 27.9976 50.69 28.376C50.809 28.7472 50.9139 29.1251 51.0065 29.5083C51.3351 29.6017 51.6546 29.6965 51.9643 29.7965C52.3354 29.9163 52.5416 30.3219 52.4246 30.7019C52.3075 31.0819 51.9115 31.2924 51.5404 31.1726C51.1237 31.038 50.6866 30.9096 50.229 30.7865V30.7836C49.9668 30.7106 49.7656 30.4871 49.7199 30.2087C49.6163 29.734 49.4949 29.2727 49.3518 28.8262C49.2304 28.4477 49.4315 28.0402 49.8011 27.9159ZM14.7187 23.0731C15.0131 22.8126 15.4578 22.8457 15.7122 23.1471C15.9667 23.4485 15.9343 23.9039 15.64 24.1645C14.8946 24.8243 14.2889 25.5537 13.7974 26.3432C13.5882 26.6792 13.1526 26.7779 12.8245 26.5637C12.4965 26.3495 12.4001 25.9034 12.6092 25.5674C13.1729 24.6618 13.8682 23.8259 14.7187 23.0731ZM46.2192 23.0527C46.4709 22.7489 46.9153 22.7118 47.212 22.9695C48.0654 23.7107 48.7637 24.5346 49.3312 25.4286C49.5432 25.7627 49.4503 26.2099 49.1241 26.427C48.7978 26.6441 48.3612 26.549 48.1491 26.215C47.6552 25.4369 47.0481 24.719 46.301 24.0701C46.0043 23.8124 45.9675 23.3566 46.2192 23.0527ZM20.3076 20.0849C20.6801 19.9696 21.0736 20.1854 21.1863 20.5668C21.2989 20.9482 21.0881 21.3512 20.7156 21.4666C19.7045 21.7799 18.8088 22.1452 18.0158 22.5559C17.6686 22.7357 17.2446 22.593 17.069 22.2374C16.8935 21.8819 17.0328 21.4477 17.38 21.2679C18.2539 20.8153 19.2267 20.4197 20.3076 20.0849ZM40.7589 20.5337C40.8693 20.1516 41.2616 19.9331 41.6348 20.0461C42.7116 20.3723 43.6807 20.7579 44.5514 21.1996C44.8998 21.3764 45.0424 21.8093 44.8699 22.1663C44.6972 22.5233 44.2746 22.6693 43.9259 22.4925C43.1356 22.0916 42.243 21.7353 41.235 21.43C40.862 21.317 40.6487 20.9157 40.7589 20.5337ZM26.4009 18.9533C26.7885 18.9182 27.1304 19.2116 27.1646 19.6085C27.1988 20.0053 26.9128 20.3555 26.5254 20.3907C25.4712 20.4861 24.4913 20.6164 23.5813 20.7796C23.198 20.8483 22.8331 20.5859 22.766 20.1934C22.6989 19.8009 22.9552 19.4271 23.3384 19.3584C24.2915 19.1875 25.3109 19.0519 26.4009 18.9533ZM35.578 18.9469C36.6614 19.0426 37.6748 19.1742 38.6218 19.3401C39.0052 19.4074 39.2626 19.7802 39.197 20.1729C39.1315 20.5657 38.7673 20.8299 38.3838 20.7627C37.4791 20.6043 36.5052 20.4776 35.4569 20.385C35.0692 20.3508 34.7822 20.0006 34.8156 19.6036C34.8492 19.2068 35.1904 18.9127 35.578 18.9469ZM31.0046 18.7595C31.5262 18.7595 32.0352 18.7659 32.5313 18.7785C32.9201 18.7886 33.2276 19.1194 33.218 19.5177C33.2083 19.9159 32.8851 20.2306 32.4962 20.2209C32.0123 20.2085 31.515 20.2025 31.0046 20.2025C30.4911 20.2025 29.9909 20.2088 29.504 20.2216C29.1151 20.2317 28.7916 19.9173 28.7815 19.5191C28.7716 19.1208 29.0786 18.7895 29.4675 18.7792C29.967 18.7662 30.4795 18.7595 31.0046 18.7595ZM31.9431 12.9021C32.3259 12.8317 32.6922 13.092 32.7611 13.4841C32.83 13.8763 32.5751 14.2513 32.1921 14.3219C31.8056 14.3931 31.4072 14.4304 31.0004 14.4304C30.5937 14.4304 30.1953 14.3931 29.8088 14.3219C29.4258 14.2513 29.1709 13.8763 29.2398 13.4841C29.3086 13.092 29.6749 12.8317 30.0578 12.9021C30.3624 12.9582 30.6776 12.9873 31.0004 12.9873C31.3233 12.9873 31.6385 12.9582 31.9431 12.9021ZM25.9434 10.7904C26.2564 10.5538 26.6975 10.6222 26.9286 10.9426C27.293 11.4483 27.7603 11.8856 28.304 12.2243C28.6365 12.4313 28.7422 12.8752 28.54 13.2156C28.3378 13.5559 27.9043 13.6636 27.5719 13.4566C26.8756 13.0228 26.2704 12.4595 25.7947 11.7994C25.564 11.4788 25.6304 11.0269 25.9434 10.7904ZM35.0723 10.9426C35.3033 10.6222 35.7445 10.5538 36.0575 10.7904C36.3705 11.0269 36.4369 11.4788 36.2061 11.7994C35.7305 12.4595 35.1253 13.0228 34.4289 13.4566C34.0966 13.6636 33.6631 13.5559 33.4609 13.2156C33.2587 12.8752 33.3644 12.4313 33.6969 12.2243C34.2406 11.8856 34.7079 11.4483 35.0723 10.9426ZM24.6595 8.29747C24.6595 7.83307 24.7262 7.35131 24.8411 6.87064C24.9337 6.48368 25.315 6.24679 25.6929 6.34148C26.0708 6.43623 26.3021 6.82675 26.2096 7.21378C26.1157 7.60682 26.0686 7.97161 26.0686 8.29747C26.0686 8.61848 26.1026 8.93129 26.167 9.23319C26.25 9.62247 26.009 10.007 25.6289 10.0921C25.2488 10.1771 24.8732 9.93041 24.7902 9.5411C24.7045 9.13896 24.6595 8.72292 24.6595 8.29747ZM35.9323 8.29747C35.9323 7.97161 35.8852 7.60682 35.7913 7.21378C35.6988 6.82675 35.93 6.43623 36.308 6.34148C36.6859 6.24679 37.0672 6.48368 37.1598 6.87064C37.2747 7.35131 37.3414 7.83307 37.3414 8.29747C37.3414 8.72292 37.2964 9.13896 37.2107 9.5411C37.1276 9.93041 36.7521 10.1771 36.372 10.0921C35.9918 10.007 35.7509 9.62247 35.8339 9.23319C35.8983 8.93129 35.9323 8.61848 35.9323 8.29747ZM27.371 2.15046C27.6311 1.85407 28.0772 1.82986 28.3666 2.09621C28.6559 2.36251 28.6795 2.81871 28.4196 3.11507C27.9208 3.68354 27.4564 4.35136 27.0738 5.05063C26.8835 5.39801 26.454 5.52155 26.1147 5.32684C25.7755 5.13197 25.6548 4.69214 25.845 4.34462C26.2759 3.55695 26.7995 2.80182 27.371 2.15046ZM33.6343 2.09621C33.9237 1.82986 34.3698 1.85407 34.6298 2.15046C35.2014 2.80182 35.7249 3.55695 36.1559 4.34462C36.346 4.69214 36.2254 5.13197 35.8862 5.32684C35.5469 5.52155 35.1174 5.39801 34.9271 5.05063C34.5445 4.35136 34.0801 3.68354 33.5813 3.11507C33.3214 2.81871 33.345 2.36251 33.6343 2.09621ZM31.0004 0C31.5184 0 32.0286 0.15804 32.5024 0.400218C32.8505 0.578188 32.992 1.01183 32.8182 1.36835C32.6445 1.72485 32.221 1.86969 31.8729 1.69176C31.533 1.51805 31.2404 1.44304 31.0004 1.44304C30.7605 1.44304 30.4679 1.51805 30.128 1.69176C29.7799 1.86969 29.3564 1.72485 29.1826 1.36835C29.0089 1.01183 29.1504 0.578187 29.4985 0.400218C29.9723 0.15804 30.4824 0 31.0004 0Z" fill="#D4D4D3"/>
</svg>
