<svg width="8" height="8" viewBox="0 0 8 8" fill="none" xmlns="http://www.w3.org/2000/svg">
<path d="M1.43113 1.43113C1.5613 1.30095 1.77231 1.30095 1.90248 1.43113L6.56915 6.09779C6.69932 6.22797 6.69932 6.43897 6.56915 6.56915C6.43897 6.69932 6.22797 6.69932 6.09779 6.56915L1.43113 1.90248C1.30095 1.77231 1.30095 1.5613 1.43113 1.43113Z" fill="#1F1F1E"/>
<path d="M6.56887 1.43113C6.4387 1.30095 6.22769 1.30095 6.09752 1.43113L1.43085 6.09779C1.30068 6.22797 1.30068 6.43897 1.43085 6.56915C1.56103 6.69932 1.77203 6.69932 1.90221 6.56915L6.56887 1.90248C6.69905 1.77231 6.69905 1.5613 6.56887 1.43113Z" fill="#1F1F1E"/>
</svg>
