<svg viewBox="0 0 20 20" fill="none" xmlns="http://www.w3.org/2000/svg">
<mask id="mask0_recent" style="mask-type:alpha" maskUnits="userSpaceOnUse" x="0" y="0" width="20" height="20">
<mask id="mask1_recent" style="mask-type:alpha" maskUnits="userSpaceOnUse" x="0" y="0" width="20" height="20">
<rect width="20" height="20" fill="#D9D9D9"/>
</mask>
<g mask="url(#mask1_recent)">
<path d="M9.99988 18.3333C8.02766 18.3333 6.28808 17.7291 4.78113 16.5208C3.27419 15.3125 2.30544 13.7708 1.87488 11.8958C1.81933 11.6597 1.86099 11.4479 1.99988 11.2604C2.13877 11.0729 2.32627 10.9652 2.56238 10.9375C2.79849 10.9097 3.00683 10.9652 3.18738 11.1041C3.36794 11.243 3.49294 11.4305 3.56238 11.6666C3.93738 13.125 4.71863 14.3229 5.90613 15.2604C7.09363 16.1979 8.45822 16.6666 9.99988 16.6666C11.861 16.6666 13.4374 16.0208 14.7291 14.7291C16.0207 13.4375 16.6666 11.8611 16.6666 9.99996C16.6666 8.13885 16.0207 6.56246 14.7291 5.27079C13.4374 3.97913 11.861 3.33329 9.99988 3.33329C8.80544 3.33329 7.6978 3.62843 6.67697 4.21871C5.65613 4.80899 4.84711 5.62496 4.24988 6.66663H5.83322C6.06933 6.66663 6.26724 6.74649 6.42697 6.90621C6.58669 7.06593 6.66655 7.26385 6.66655 7.49996C6.66655 7.73607 6.58669 7.93399 6.42697 8.09371C6.26724 8.25343 6.06933 8.33329 5.83322 8.33329H2.99988C2.69433 8.33329 2.45127 8.21176 2.27072 7.96871C2.09016 7.72565 2.04849 7.46524 2.14572 7.18746C2.72905 5.54857 3.73599 4.21871 5.16655 3.19788C6.59711 2.17704 8.20822 1.66663 9.99988 1.66663C11.1527 1.66663 12.236 1.88538 13.2499 2.32288C14.2638 2.76038 15.1457 3.35413 15.8957 4.10413C16.6457 4.85413 17.2395 5.73607 17.677 6.74996C18.1145 7.76385 18.3332 8.84718 18.3332 9.99996C18.3332 11.1527 18.1145 12.2361 17.677 13.25C17.2395 14.2638 16.6457 15.1458 15.8957 15.8958C15.1457 16.6458 14.2638 17.2395 13.2499 17.677C12.236 18.1145 11.1527 18.3333 9.99988 18.3333ZM10.8332 9.66663L12.9166 11.75C13.0693 11.9027 13.1457 12.0972 13.1457 12.3333C13.1457 12.5694 13.0693 12.7638 12.9166 12.9166C12.7638 13.0694 12.5693 13.1458 12.3332 13.1458C12.0971 13.1458 11.9027 13.0694 11.7499 12.9166L9.41655 10.5833C9.33322 10.5 9.27072 10.4062 9.22905 10.302C9.18738 10.1979 9.16655 10.0902 9.16655 9.97913V6.66663C9.16655 6.43051 9.24641 6.2326 9.40613 6.07288C9.56586 5.91315 9.76377 5.83329 9.99988 5.83329C10.236 5.83329 10.4339 5.91315 10.5936 6.07288C10.7534 6.2326 10.8332 6.43051 10.8332 6.66663V9.66663Z" fill="#1C1B1F"/>
</g>
</mask>
<g mask="url(#mask0_recent)">
<rect width="20" height="20" fill="currentColor"/>
</g>
</svg>
