<svg viewBox="0 0 20 20" fill="none" xmlns="http://www.w3.org/2000/svg">
<path d="M8.18766 17.25C6.75711 16.8472 5.59044 16.059 4.68766 14.8854C3.78488 13.7118 3.3335 12.3611 3.3335 10.8333C3.3335 10.0417 3.46544 9.2882 3.72933 8.57292C3.99322 7.85764 4.36822 7.20139 4.85433 6.60417C5.00711 6.4375 5.19461 6.3507 5.41683 6.34375C5.63905 6.33681 5.84044 6.42361 6.021 6.60417C6.17377 6.75695 6.25363 6.94445 6.26058 7.16667C6.26752 7.38889 6.19461 7.59722 6.04183 7.79167C5.7085 8.22222 5.45155 8.69445 5.271 9.20833C5.09044 9.72222 5.00016 10.2639 5.00016 10.8333C5.00016 11.9583 5.33002 12.9618 5.98975 13.8438C6.64947 14.7257 7.50016 15.3264 8.54183 15.6458C8.72238 15.7014 8.87169 15.8056 8.98975 15.9583C9.1078 16.1111 9.16683 16.2778 9.16683 16.4583C9.16683 16.7361 9.06961 16.9549 8.87516 17.1146C8.68072 17.2743 8.45155 17.3194 8.18766 17.25ZM11.8127 17.25C11.5488 17.3194 11.3196 17.2708 11.1252 17.1042C10.9307 16.9375 10.8335 16.7153 10.8335 16.4375C10.8335 16.2708 10.8925 16.1111 11.0106 15.9583C11.1286 15.8056 11.2779 15.7014 11.4585 15.6458C12.5002 15.3125 13.3509 14.7083 14.0106 13.8333C14.6703 12.9583 15.0002 11.9583 15.0002 10.8333C15.0002 9.44445 14.5141 8.26389 13.5418 7.29167C12.5696 6.31944 11.3891 5.83333 10.0002 5.83333H9.93766L10.271 6.16667C10.4238 6.31944 10.5002 6.51389 10.5002 6.75C10.5002 6.98611 10.4238 7.18056 10.271 7.33333C10.1182 7.48611 9.92377 7.5625 9.68766 7.5625C9.45155 7.5625 9.25711 7.48611 9.10433 7.33333L7.35433 5.58333C7.271 5.5 7.21197 5.40972 7.17725 5.3125C7.14252 5.21528 7.12516 5.11111 7.12516 5C7.12516 4.88889 7.14252 4.78472 7.17725 4.6875C7.21197 4.59028 7.271 4.5 7.35433 4.41667L9.10433 2.66667C9.25711 2.51389 9.45155 2.4375 9.68766 2.4375C9.92377 2.4375 10.1182 2.51389 10.271 2.66667C10.4238 2.81944 10.5002 3.01389 10.5002 3.25C10.5002 3.48611 10.4238 3.68056 10.271 3.83333L9.93766 4.16667H10.0002C11.8613 4.16667 13.4377 4.8125 14.7293 6.10417C16.021 7.39583 16.6668 8.97222 16.6668 10.8333C16.6668 12.3472 16.2154 13.6944 15.3127 14.875C14.4099 16.0556 13.2432 16.8472 11.8127 17.25Z" fill="currentColor"/>
</svg>
