<svg viewBox="0 0 20 20" fill="none" xmlns="http://www.w3.org/2000/svg">
<mask id="mask0_reservation" style="mask-type:alpha" maskUnits="userSpaceOnUse" x="0" y="0" width="20" height="20">
<mask id="mask1_reservation" style="mask-type:alpha" maskUnits="userSpaceOnUse" x="0" y="0" width="20" height="20">
<rect width="20" height="20" fill="#D9D9D9"/>
</mask>
<g mask="url(#mask1_reservation)">
<path d="M3.33317 16.6667C2.87484 16.6667 2.48248 16.5035 2.15609 16.1771C1.8297 15.8507 1.6665 15.4584 1.6665 15V12.1875C1.6665 12.0348 1.71512 11.9028 1.81234 11.7917C1.90956 11.6806 2.03456 11.6112 2.18734 11.5834C2.52067 11.4723 2.79498 11.2709 3.01025 10.9792C3.22553 10.6875 3.33317 10.3612 3.33317 10C3.33317 9.63893 3.22553 9.31254 3.01025 9.02087C2.79498 8.72921 2.52067 8.52782 2.18734 8.41671C2.03456 8.38893 1.90956 8.31948 1.81234 8.20837C1.71512 8.09726 1.6665 7.96532 1.6665 7.81254V5.00004C1.6665 4.54171 1.8297 4.14935 2.15609 3.82296C2.48248 3.49657 2.87484 3.33337 3.33317 3.33337H16.6665C17.1248 3.33337 17.5172 3.49657 17.8436 3.82296C18.17 4.14935 18.3332 4.54171 18.3332 5.00004V7.81254C18.3332 7.96532 18.2846 8.09726 18.1873 8.20837C18.0901 8.31948 17.9651 8.38893 17.8123 8.41671C17.479 8.52782 17.2047 8.72921 16.9894 9.02087C16.7741 9.31254 16.6665 9.63893 16.6665 10C16.6665 10.3612 16.7741 10.6875 16.9894 10.9792C17.2047 11.2709 17.479 11.4723 17.8123 11.5834C17.9651 11.6112 18.0901 11.6806 18.1873 11.7917C18.2846 11.9028 18.3332 12.0348 18.3332 12.1875V15C18.3332 15.4584 18.17 15.8507 17.8436 16.1771C17.5172 16.5035 17.1248 16.6667 16.6665 16.6667H3.33317ZM3.33317 15H16.6665V12.875C16.1526 12.5695 15.7464 12.1632 15.4478 11.6563C15.1491 11.1493 14.9998 10.5973 14.9998 10C14.9998 9.40282 15.1491 8.85074 15.4478 8.34379C15.7464 7.83685 16.1526 7.4306 16.6665 7.12504V5.00004H3.33317V7.12504C3.84706 7.4306 4.25331 7.83685 4.55192 8.34379C4.85053 8.85074 4.99984 9.40282 4.99984 10C4.99984 10.5973 4.85053 11.1493 4.55192 11.6563C4.25331 12.1632 3.84706 12.5695 3.33317 12.875V15ZM9.99984 14.1667C10.2359 14.1667 10.4339 14.0868 10.5936 13.9271C10.7533 13.7674 10.8332 13.5695 10.8332 13.3334C10.8332 13.0973 10.7533 12.8993 10.5936 12.7396C10.4339 12.5799 10.2359 12.5 9.99984 12.5C9.76373 12.5 9.56581 12.5799 9.40609 12.7396C9.24637 12.8993 9.1665 13.0973 9.1665 13.3334C9.1665 13.5695 9.24637 13.7674 9.40609 13.9271C9.56581 14.0868 9.76373 14.1667 9.99984 14.1667ZM9.99984 10.8334C10.2359 10.8334 10.4339 10.7535 10.5936 10.5938C10.7533 10.4341 10.8332 10.2362 10.8332 10C10.8332 9.76393 10.7533 9.56601 10.5936 9.40629C10.4339 9.24657 10.2359 9.16671 9.99984 9.16671C9.76373 9.16671 9.56581 9.24657 9.40609 9.40629C9.24637 9.56601 9.1665 9.76393 9.1665 10C9.1665 10.2362 9.24637 10.4341 9.40609 10.5938C9.56581 10.7535 9.76373 10.8334 9.99984 10.8334ZM9.99984 7.50004C10.2359 7.50004 10.4339 7.42018 10.5936 7.26046C10.7533 7.10074 10.8332 6.90282 10.8332 6.66671C10.8332 6.4306 10.7533 6.23268 10.5936 6.07296C10.4339 5.91324 10.2359 5.83337 9.99984 5.83337C9.76373 5.83337 9.56581 5.91324 9.40609 6.07296C9.24637 6.23268 9.1665 6.4306 9.1665 6.66671C9.1665 6.90282 9.24637 7.10074 9.40609 7.26046C9.56581 7.42018 9.76373 7.50004 9.99984 7.50004Z" fill="#1C1B1F"/>
</g>
</mask>
<g mask="url(#mask0_reservation)">
<rect width="20" height="20" fill="currentColor"/>
</g>
</svg>
