<svg viewBox="0 0 16 16" fill="none" xmlns="http://www.w3.org/2000/svg">
<mask id="mask0_3887_7390" style="mask-type:alpha" maskUnits="userSpaceOnUse" x="0" y="0" width="16" height="16">
<path d="M9.00033 1.66699C12.3139 1.66719 15.0003 4.3534 15.0003 7.66699C15.0003 8.78962 14.6903 9.84204 14.1527 10.7412C14.1437 10.7564 14.1399 10.7701 14.139 10.7783C14.1388 10.781 14.139 10.7842 14.139 10.7842L14.6263 12.0439C14.9566 12.8979 14.17 13.7618 13.2894 13.5146L11.6546 13.0557C11.6546 13.0557 11.6517 13.0555 11.6497 13.0557C11.6436 13.0564 11.6328 13.0585 11.6205 13.0645C10.8282 13.4498 9.93877 13.6669 9.00033 13.667C8.54221 13.667 8.09602 13.6129 7.66733 13.5156C7.15366 13.6984 6.60125 13.7998 6.02475 13.7998C5.3105 13.7997 4.62979 13.6451 4.01498 13.3682C3.99327 13.3584 3.97378 13.3553 3.96225 13.3555C3.95802 13.3556 3.95502 13.3561 3.95346 13.3564L2.53256 14.1865C2.47342 14.221 2.3023 14.3205 2.07553 14.332C1.34259 14.3686 0.803269 13.6307 1.06869 12.9307L1.07162 12.9229L1.07455 12.916L1.72787 11.3105C1.72807 11.3092 1.72823 11.3066 1.72787 11.3027C1.72693 11.2926 1.72202 11.2759 1.71127 11.2568C1.29069 10.513 1.0502 9.65078 1.05014 8.7334C1.05015 6.57202 2.38399 4.71394 4.27182 3.99023C4.26572 3.99257 4.25935 3.99471 4.25326 3.99707C5.35071 2.57957 7.06892 1.66699 9.00033 1.66699ZM6.02475 5C4.02679 5.00024 2.38413 6.65857 2.38412 8.7334C2.38418 9.41542 2.5623 10.0522 2.87241 10.6006C3.06744 10.9456 3.13326 11.3919 2.96225 11.8125L2.65366 12.5713L3.28158 12.2051C3.69938 11.9614 4.18112 11.9803 4.56283 12.1523C5.00988 12.3537 5.50392 12.4658 6.02475 12.4658C8.02268 12.4657 9.66716 10.8081 9.66733 8.7334C9.66732 6.65852 8.02278 5.00016 6.02475 5ZM9.00033 3C8.10191 3 7.26214 3.25342 6.55014 3.69336V3.69434V3.69336C9.06122 3.96101 11.0003 6.12761 11.0003 8.7334C11.0002 10.1201 10.4502 11.3813 9.55795 12.2988C10.0833 12.2362 10.5822 12.0882 11.0384 11.8662C11.326 11.7265 11.6727 11.6754 12.015 11.7715L13.223 12.1104L12.8958 11.2646C12.7338 10.8457 12.803 10.4015 13.0091 10.0566C13.4268 9.35803 13.6673 8.54131 13.6673 7.66699C13.6673 5.08978 11.5775 3.0002 9.00033 3ZM4.66635 8C5.03454 8 5.33334 8.2988 5.33334 8.66699C5.33317 9.03503 5.03443 9.33301 4.66635 9.33301C4.29837 9.33289 4.00051 9.03496 4.00033 8.66699C4.00033 8.29887 4.29826 8.00012 4.66635 8ZM7.33334 8C7.70148 8.00006 8.00033 8.29884 8.00033 8.66699C8.00016 9.035 7.70137 9.33295 7.33334 9.33301C6.96526 9.33301 6.66653 9.03503 6.66635 8.66699C6.66635 8.2988 6.96515 8 7.33334 8Z" fill="#1F1F1E"/>
</mask>
<g mask="url(#mask0_3887_7390)">
<rect width="16" height="16" fill="currentColor"/>
</g>
</svg>
