<svg viewBox="0 0 20 20" fill="none" xmlns="http://www.w3.org/2000/svg">
<mask id="mask0_review" style="mask-type:alpha" maskUnits="userSpaceOnUse" x="0" y="0" width="20" height="20">
<path d="M7.49984 9.16663C7.96007 9.16663 8.33317 9.53972 8.33317 9.99996C8.33317 10.4602 7.96007 10.8333 7.49984 10.8333C7.0396 10.8333 6.6665 10.4602 6.6665 9.99996C6.6665 9.53972 7.0396 9.16663 7.49984 9.16663Z" fill="#1F1F1E"/>
<path d="M9.99984 9.16663C10.4601 9.16663 10.8332 9.53972 10.8332 9.99996C10.8332 10.4602 10.4601 10.8333 9.99984 10.8333C9.5396 10.8333 9.1665 10.4602 9.1665 9.99996C9.1665 9.53972 9.5396 9.16663 9.99984 9.16663Z" fill="#1F1F1E"/>
<path d="M12.4998 9.16663C12.9601 9.16663 13.3332 9.53972 13.3332 9.99996C13.3332 10.4602 12.9601 10.8333 12.4998 10.8333C12.0396 10.8333 11.6665 10.4602 11.6665 9.99996C11.6665 9.53972 12.0396 9.16663 12.4998 9.16663Z" fill="#1F1F1E"/>
<path fill-rule="evenodd" clip-rule="evenodd" d="M9.99984 1.66663C14.6022 1.66663 18.3332 5.39759 18.3332 9.99996C18.3332 14.6023 14.6022 18.3333 9.99984 18.3333C8.67908 18.3333 7.42849 18.0247 6.31738 17.4764C6.30336 17.4694 6.29164 17.4665 6.28483 17.4658C6.27902 17.4652 6.27779 17.4664 6.27995 17.4658L3.94027 18.1233C2.78399 18.4483 1.75158 17.3142 2.18571 16.193L2.89128 14.3701C2.89025 14.3728 2.89137 14.371 2.89046 14.3628C2.88941 14.3536 2.88521 14.3389 2.875 14.3221C2.10869 13.0617 1.6665 11.5814 1.6665 9.99996C1.6665 5.39759 5.39746 1.66663 9.99984 1.66663ZM9.99984 3.33329C6.31794 3.33329 3.33317 6.31806 3.33317 9.99996C3.33317 11.2667 3.68657 12.4486 4.29915 13.4562C4.56292 13.8901 4.64797 14.4486 4.44564 14.9715L3.88981 16.4054L5.8291 15.861C6.25664 15.7408 6.69222 15.8034 7.05469 15.9822C7.9421 16.4202 8.94119 16.6666 9.99984 16.6666C13.6817 16.6666 16.6665 13.6819 16.6665 9.99996C16.6665 6.31806 13.6817 3.33329 9.99984 3.33329Z" fill="#1F1F1E"/>
</mask>
<g mask="url(#mask0_review)">
<rect width="20" height="20" fill="currentColor"/>
</g>
</svg>
