<svg viewBox="0 0 20 20" fill="none" xmlns="http://www.w3.org/2000/svg">
<mask id="mask0_3743_19174" style="mask-type:alpha" maskUnits="userSpaceOnUse" x="0" y="0" width="20" height="20">
<path d="M10 1.66699C14.6024 1.66699 18.333 5.39763 18.333 10C18.333 14.6024 14.6024 18.333 10 18.333C8.67924 18.333 7.42849 18.0249 6.31738 17.4766C6.30349 17.4697 6.29198 17.4666 6.28516 17.4658C6.28293 17.4656 6.28122 17.4657 6.28027 17.4658L3.94043 18.123C2.78429 18.448 1.75181 17.3144 2.18555 16.1934L2.8916 14.3701C2.89058 14.3728 2.89153 14.3705 2.89062 14.3623C2.88948 14.3531 2.88502 14.3388 2.875 14.3223C2.10869 13.0619 1.66699 11.5815 1.66699 10C1.66699 5.39763 5.39763 1.66699 10 1.66699ZM7.5 9.16699C7.03976 9.16699 6.66699 9.53976 6.66699 10C6.66699 10.4602 7.03976 10.833 7.5 10.833C7.96024 10.833 8.33301 10.4602 8.33301 10C8.33301 9.53976 7.96024 9.16699 7.5 9.16699ZM10 9.16699C9.53976 9.16699 9.16699 9.53976 9.16699 10C9.16699 10.4602 9.53976 10.833 10 10.833C10.4602 10.833 10.833 10.4602 10.833 10C10.833 9.53976 10.4602 9.16699 10 9.16699ZM12.5 9.16699C12.0398 9.16699 11.667 9.53976 11.667 10C11.667 10.4602 12.0398 10.833 12.5 10.833C12.9602 10.833 13.333 10.4602 13.333 10C13.333 9.53976 12.9602 9.16699 12.5 9.16699Z" fill="#1F1F1E"/>
</mask>
<g mask="url(#mask0_3743_19174)">
<rect width="20" height="20" fill="currentColor"/>
</g>
</svg>
