<svg viewBox="0 0 20 20" fill="none" xmlns="http://www.w3.org/2000/svg">
<mask id="mask0_saved" style="mask-type:alpha" maskUnits="userSpaceOnUse" x="0" y="0" width="20" height="20">
<mask id="mask1_saved" style="mask-type:alpha" maskUnits="userSpaceOnUse" x="0" y="0" width="20" height="20">
<rect width="20" height="20" fill="#D4D4D3"/>
</mask>
<g mask="url(#mask1_saved)">
<path d="M9.99984 16.9375C9.80539 16.9375 9.60748 16.9028 9.40609 16.8334C9.2047 16.7639 9.02762 16.6528 8.87484 16.5L7.43734 15.1875C5.96512 13.8403 4.63525 12.5035 3.44775 11.1771C2.26025 9.85074 1.6665 8.38893 1.6665 6.79171C1.6665 5.48615 2.104 4.39587 2.979 3.52087C3.854 2.64587 4.94428 2.20837 6.24984 2.20837C6.98595 2.20837 7.68039 2.36462 8.33317 2.67712C8.98595 2.98962 9.5415 3.41671 9.99984 3.95837C10.4582 3.41671 11.0137 2.98962 11.6665 2.67712C12.3193 2.36462 13.0137 2.20837 13.7498 2.20837C15.0554 2.20837 16.1457 2.64587 17.0207 3.52087C17.8957 4.39587 18.3332 5.48615 18.3332 6.79171C18.3332 8.38893 17.7429 9.85421 16.5623 11.1875C15.3818 12.5209 14.0415 13.8612 12.5415 15.2084L11.1248 16.5C10.9721 16.6528 10.795 16.7639 10.5936 16.8334C10.3922 16.9028 10.1943 16.9375 9.99984 16.9375ZM9.20817 5.62504C8.80539 5.0556 8.37484 4.62157 7.9165 4.32296C7.45817 4.02435 6.90261 3.87504 6.24984 3.87504C5.4165 3.87504 4.72206 4.15282 4.1665 4.70837C3.61095 5.26393 3.33317 5.95837 3.33317 6.79171C3.33317 7.51393 3.59011 8.28129 4.104 9.09379C4.61789 9.90629 5.23248 10.6945 5.94775 11.4584C6.66303 12.2223 7.39914 12.9375 8.15609 13.6042C8.91303 14.2709 9.52761 14.8195 9.99984 15.25C10.4721 14.8195 11.0866 14.2709 11.8436 13.6042C12.6005 12.9375 13.3366 12.2223 14.0519 11.4584C14.7672 10.6945 15.3818 9.90629 15.8957 9.09379C16.4096 8.28129 16.6665 7.51393 16.6665 6.79171C16.6665 5.95837 16.3887 5.26393 15.8332 4.70837C15.2776 4.15282 14.5832 3.87504 13.7498 3.87504C13.0971 3.87504 12.5415 4.02435 12.0832 4.32296C11.6248 4.62157 11.1943 5.0556 10.7915 5.62504C10.6943 5.76393 10.5762 5.8681 10.4373 5.93754C10.2984 6.00699 10.1526 6.04171 9.99984 6.04171C9.84706 6.04171 9.70123 6.00699 9.56234 5.93754C9.42345 5.8681 9.30539 5.76393 9.20817 5.62504Z" fill="#1C1B1F"/>
</g>
</mask>
<g mask="url(#mask0_saved)">
<rect width="20" height="20" fill="currentColor"/>
</g>
</svg>
