<svg viewBox="0 0 20 20" fill="none" xmlns="http://www.w3.org/2000/svg">
<path fill-rule="evenodd" clip-rule="evenodd" d="M8.75 2.5C12.2018 2.5 15 5.29822 15 8.75C15 10.1754 14.5216 11.4884 13.7183 12.5399L17.2559 16.0775C17.5813 16.4029 17.5813 16.9304 17.2559 17.2559C16.9304 17.5813 16.4029 17.5813 16.0775 17.2559L12.5399 13.7183C11.4884 14.5216 10.1754 15 8.75 15C5.29822 15 2.5 12.2018 2.5 8.75C2.5 5.29822 5.29822 2.5 8.75 2.5ZM8.75 4.16667C6.21869 4.16667 4.16667 6.21869 4.16667 8.75C4.16667 11.2813 6.21869 13.3333 8.75 13.3333C11.2813 13.3333 13.3333 11.2813 13.3333 8.75C13.3333 6.21869 11.2813 4.16667 8.75 4.16667Z" fill="currentColor"/>
</svg>
