<svg viewBox="0 0 20 20" fill="none" xmlns="http://www.w3.org/2000/svg">
<mask id="mask0_835_854" style="mask-type:alpha" maskUnits="userSpaceOnUse" x="0" y="0" width="20" height="20">
<rect width="20" height="20" transform="matrix(1 0 0 -1 0 20)" fill="#D9D9D9"/>
</mask>
<g mask="url(#mask0_835_854)">
<path d="M9.99993 7.54158C9.88882 7.54158 9.78465 7.55894 9.68743 7.59366C9.59021 7.62838 9.49993 7.68741 9.41659 7.77074L5.58326 11.6041C5.43048 11.7569 5.35062 11.9478 5.34368 12.177C5.33673 12.4062 5.4166 12.6041 5.58326 12.7707C5.73604 12.9235 5.93048 12.9999 6.1666 12.9999C6.40271 12.9999 6.59715 12.9235 6.74993 12.7707L9.99993 9.54158L13.2499 12.7707C13.4027 12.9235 13.5937 13.0034 13.8228 13.0103C14.052 13.0173 14.2499 12.9374 14.4166 12.7707C14.5694 12.618 14.6458 12.4235 14.6458 12.1874C14.6458 11.9513 14.5694 11.7569 14.4166 11.6041L10.5833 7.77074C10.4999 7.68741 10.4097 7.62838 10.3124 7.59366C10.2152 7.55894 10.111 7.54158 9.99993 7.54158Z" fill="currentColor"/>
</g>
</svg>
