<svg viewBox="0 0 24 24" fill="none" xmlns="http://www.w3.org/2000/svg">
<mask id="mask0_1492_2117" style="mask-type:alpha" maskUnits="userSpaceOnUse" x="0" y="0" width="24" height="24">
<mask id="mask1_1492_2117" style="mask-type:alpha" maskUnits="userSpaceOnUse" x="0" y="0" width="24" height="24">
<rect width="24" height="24" fill="#D9D9D9"/>
</mask>
<g mask="url(#mask1_1492_2117)">
<path fill-rule="evenodd" clip-rule="evenodd" d="M13.1748 2C13.6248 2 14.0129 2.1502 14.3379 2.4502C14.6627 2.7501 14.8581 3.11667 14.9248 3.5498L15.1504 5.2002C15.367 5.28351 15.5711 5.38338 15.7627 5.5C15.9544 5.61666 16.1419 5.74167 16.3252 5.875L17.875 5.22461C18.2916 5.04131 18.7084 5.02489 19.125 5.1748C19.5417 5.32479 19.8673 5.59133 20.1006 5.97461L21.2754 8.02539C21.5085 8.40859 21.5755 8.81684 21.4756 9.25C21.3756 9.68333 21.1498 10.0419 20.7998 10.3252L19.4756 11.3252C19.4922 11.4416 19.5 11.554 19.5 11.6621V12.3379C19.5 12.446 19.4835 12.5583 19.4502 12.6748L20.7754 13.6748C21.1254 13.9581 21.3502 14.3167 21.4502 14.75C21.5502 15.1833 21.4833 15.5913 21.25 15.9746L20.0498 18.0254C19.8165 18.4085 19.4917 18.6753 19.0752 18.8252C18.6586 18.9752 18.2418 18.9586 17.8252 18.7754L16.3252 18.125C16.1419 18.2583 15.95 18.3833 15.75 18.5C15.5502 18.6166 15.3503 18.7165 15.1504 18.7998L14.9248 20.4502C14.8581 20.8833 14.6627 21.2499 14.3379 21.5498C14.0129 21.8498 13.6248 22 13.1748 22H10.8252C10.3753 22 9.98808 21.8497 9.66311 21.5498C9.33816 21.2498 9.14191 20.8834 9.07522 20.4502L8.85061 18.7998C8.63394 18.7165 8.42899 18.6167 8.23733 18.5C8.04575 18.3834 7.85808 18.2583 7.67483 18.125L6.12502 18.7754C5.70845 18.9586 5.29159 18.9752 4.87502 18.8252C4.45854 18.6752 4.13371 18.4085 3.90041 18.0254L2.72561 15.9746C2.49232 15.5913 2.42542 15.1833 2.52541 14.75C2.62542 14.3167 2.85023 13.9581 3.20022 13.6748L4.52541 12.6748C4.50878 12.5583 4.50004 12.4461 4.50002 12.3379V11.6621C4.50004 11.5539 4.50878 11.4417 4.52541 11.3252L3.20022 10.3252C2.85023 10.0419 2.62542 9.68331 2.52541 9.25C2.42542 8.8167 2.49232 8.40869 2.72561 8.02539L3.90041 5.97461C4.13371 5.59151 4.45854 5.32476 4.87502 5.1748C5.29159 5.02484 5.70845 5.04139 6.12502 5.22461L7.67483 5.875C7.85812 5.74169 8.05007 5.61665 8.25002 5.5C8.45002 5.38333 8.65061 5.28353 8.85061 5.2002L9.07522 3.5498C9.14191 3.11656 9.33816 2.75015 9.66311 2.4502C9.98808 2.15027 10.3753 2 10.8252 2H13.1748ZM10.6748 6.65039C10.1583 6.78372 9.67887 6.97904 9.23733 7.2373C8.79582 7.49557 8.39197 7.80828 8.02541 8.1748L5.54983 7.15039L4.57522 8.84961L6.72561 10.4502C6.64228 10.7002 6.58316 10.9502 6.54983 11.2002C6.51652 11.4501 6.50002 11.7168 6.50002 12C6.50002 12.2667 6.51649 12.5254 6.54983 12.7754C6.58317 13.0253 6.64231 13.2755 6.72561 13.5254L4.57522 15.1504L5.54983 16.8496L8.02541 15.7998C8.39203 16.1831 8.79574 16.5044 9.23733 16.7627C9.67887 17.021 10.1583 17.2163 10.6748 17.3496L11 20H12.9756L13.3252 17.3496C13.8418 17.2163 14.3211 17.021 14.7627 16.7627C15.2044 16.5044 15.6089 16.1919 15.9756 15.8252L18.4502 16.8496L19.4248 15.1504L17.2754 13.5254C17.3587 13.2921 17.4169 13.0454 17.4502 12.7871C17.4835 12.5289 17.5 12.2665 17.5 12C17.5 11.7335 17.4835 11.4711 17.4502 11.2129C17.4169 10.9546 17.3587 10.7079 17.2754 10.4746L19.4248 8.84961L18.4502 7.15039L15.9756 8.2002C15.6089 7.81686 15.2044 7.49564 14.7627 7.2373C14.3211 6.97901 13.8418 6.78372 13.3252 6.65039L13 4H11.0254L10.6748 6.65039ZM12 8C14.2092 8 16 9.79086 16 12C16 14.2091 14.2092 16 12 16C9.79097 15.9999 8.00002 14.2091 8.00002 12C8.00002 9.79092 9.79097 8.0001 12 8ZM12 10C10.8955 10.0001 10 10.8955 10 12C10 13.1045 10.8955 13.9999 12 14C13.1046 14 14 13.1046 14 12C14 10.8954 13.1046 10 12 10Z" fill="currentColor"/>
</g>
</mask>
<g mask="url(#mask0_1492_2117)">
<rect width="24" height="24" fill="currentColor"/>
</g>
</svg>
