<svg viewBox="0 0 15 14" fill="none" xmlns="http://www.w3.org/2000/svg">
<path d="M6.16109 0.615923C6.50269 -0.205369 7.66614 -0.205368 8.00773 0.615924L9.23038 3.55552C9.37438 3.90175 9.7 4.13832 10.0738 4.16829L13.2473 4.42271C14.134 4.49379 14.4935 5.6003 13.818 6.17897L11.4001 8.25016C11.1153 8.49411 10.9909 8.87689 11.0779 9.24164L11.8166 12.3385C12.023 13.2037 11.0818 13.8876 10.3227 13.4239L7.60567 11.7644C7.28565 11.5689 6.88317 11.5689 6.56316 11.7644L3.84617 13.4239C3.08707 13.8876 2.14582 13.2037 2.3522 12.3385L3.09091 9.24164C3.17792 8.87689 3.05355 8.49411 2.76876 8.25016L0.350858 6.17897C-0.324679 5.6003 0.0348482 4.49379 0.921502 4.42271L4.09504 4.16829C4.46883 4.13832 4.79444 3.90175 4.93845 3.55552L6.16109 0.615923Z" fill="currentColor"/>
</svg>
