<svg viewBox="0 0 14 14" fill="none" xmlns="http://www.w3.org/2000/svg">
<mask id="mask0_917_1053" style="mask-type:alpha" maskUnits="userSpaceOnUse" x="0" y="0" width="14" height="14">
<rect width="14" height="14" fill="#D9D9D9"/>
</mask>
<g mask="url(#mask0_917_1053)">
<path d="M4.0835 12.25C3.76266 12.25 3.48801 12.1358 3.25954 11.9073C3.03107 11.6788 2.91683 11.4042 2.91683 11.0833V3.5C2.75155 3.5 2.61301 3.4441 2.5012 3.33229C2.3894 3.22049 2.3335 3.08194 2.3335 2.91667C2.3335 2.75139 2.3894 2.61285 2.5012 2.50104C2.61301 2.38924 2.75155 2.33333 2.91683 2.33333H5.25016C5.25016 2.16806 5.30607 2.02951 5.41787 1.91771C5.52968 1.8059 5.66822 1.75 5.8335 1.75H8.16683C8.33211 1.75 8.47065 1.8059 8.58245 1.91771C8.69426 2.02951 8.75016 2.16806 8.75016 2.33333H11.0835C11.2488 2.33333 11.3873 2.38924 11.4991 2.50104C11.6109 2.61285 11.6668 2.75139 11.6668 2.91667C11.6668 3.08194 11.6109 3.22049 11.4991 3.33229C11.3873 3.4441 11.2488 3.5 11.0835 3.5V11.0833C11.0835 11.4042 10.9693 11.6788 10.7408 11.9073C10.5123 12.1358 10.2377 12.25 9.91683 12.25H4.0835ZM9.91683 3.5H4.0835V11.0833H9.91683V3.5ZM5.8335 9.91667C5.99877 9.91667 6.13732 9.86076 6.24912 9.74896C6.36093 9.63715 6.41683 9.49861 6.41683 9.33333V5.25C6.41683 5.08472 6.36093 4.94618 6.24912 4.83437C6.13732 4.72257 5.99877 4.66667 5.8335 4.66667C5.66822 4.66667 5.52968 4.72257 5.41787 4.83437C5.30607 4.94618 5.25016 5.08472 5.25016 5.25V9.33333C5.25016 9.49861 5.30607 9.63715 5.41787 9.74896C5.52968 9.86076 5.66822 9.91667 5.8335 9.91667ZM8.16683 9.91667C8.33211 9.91667 8.47065 9.86076 8.58245 9.74896C8.69426 9.63715 8.75016 9.49861 8.75016 9.33333V5.25C8.75016 5.08472 8.69426 4.94618 8.58245 4.83437C8.47065 4.72257 8.33211 4.66667 8.16683 4.66667C8.00155 4.66667 7.86301 4.72257 7.7512 4.83437C7.6394 4.94618 7.5835 5.08472 7.5835 5.25V9.33333C7.5835 9.49861 7.6394 9.63715 7.7512 9.74896C7.86301 9.86076 8.00155 9.91667 8.16683 9.91667Z" fill="currentColor"/>
</g>
</svg>
